<svg xmlns="http://www.w3.org/2000/svg" xmlns:xlink="http://www.w3.org/1999/xlink" xmlns:lucid="lucid" width="1277" height="1038"><g transform="translate(-103.99999999616306 2077.000000003111)" lucid:page-tab-id="0_0"><path d="M0-3500h2500v5000H0z" fill="#fff"/><path d="M105-2070a6 6 0 0 1 6-6h1263a6 6 0 0 1 6 6v1024a6 6 0 0 1-6 6H111a6 6 0 0 1-6-6z" stroke="#fff" stroke-width="2" fill="#f2f3f5"/><path d="M115.78-2057.3a6 6 0 0 1 6-6H1361a6 6 0 0 1 6 6v997.6a6 6 0 0 1-6 6H121.78a6 6 0 0 1-6-6z" stroke="#fff" stroke-width="2" fill="#fff"/><path d="M460.47-1698.72a13.84 13.84 0 0 1 4.38-10.1l157.1-147.08a15.2 15.2 0 0 1 10.38-4.1h228.22a15.2 15.2 0 0 1 10.38 4.1l157.1 147.08a13.84 13.84 0 0 1 4.38 10.1v212.88a13.84 13.84 0 0 1-4.37 10.1l-157.1 147.08a15.2 15.2 0 0 1-10.38 4.1h-228.2a15.2 15.2 0 0 1-10.4-4.1l-157.1-147.07a13.84 13.84 0 0 1-4.38-10.1z" stroke="#3a414a" stroke-width="2" fill="#fff"/><path d="M729.76-1720.7c0 26.75-21.68 48.42-48.42 48.42-26.74 0-48.4-21.67-48.4-48.4 0-26.75 21.66-48.43 48.4-48.43s48.42 21.67 48.42 48.4z" stroke="#3a414a" stroke-width="2" fill="#f2f2ff"/><use xlink:href="#a" transform="matrix(1,0,0,1,637.9285148609455,-1764.1073278154486) translate(30.864366319444443 51.43402777777778)"/><path d="M863.83-1623.86c0 26.73-21.68 48.4-48.42 48.4-26.73 0-48.4-21.66-48.4-48.4s21.67-48.42 48.4-48.42c26.75 0 48.43 21.68 48.43 48.42z" stroke="#3a414a" stroke-width="2" fill="#f2f2ff"/><use xlink:href="#b" transform="matrix(1,0,0,1,771.9957999893456,-1667.2784259940925) translate(28.607421875 51.43402777777778)"/><path d="M646-1493.27c0 26.74-21.68 48.4-48.4 48.4-26.75 0-48.43-21.66-48.43-48.4s21.68-48.4 48.42-48.4c26.72 0 48.4 21.66 48.4 48.4z" stroke="#3a414a" stroke-width="2" fill="#f2f2ff"/><use xlink:href="#c" transform="matrix(1,0,0,1,554.1710981786439,-1536.6834931406638) translate(28.520616319444443 51.43402777777778)"/><path d="M927.9-1493.27c0 26.74-21.67 48.4-48.4 48.4-26.75 0-48.42-21.66-48.42-48.4s21.67-48.4 48.4-48.4c26.75 0 48.42 21.66 48.42 48.4z" stroke="#3a414a" stroke-width="2" fill="#f2f2ff"/><use xlink:href="#d" transform="matrix(1,0,0,1,836.0758023427989,-1536.6834931406638) translate(28.205946180555557 51.43402777777778)"/><path d="M661.8-1884a6 6 0 0 1 6-6h148.24a6 6 0 0 1 6 6v48a6 6 0 0 1-6 6H667.8a6 6 0 0 1-6-6z" stroke="#9391ff" stroke-width="2" fill="#f2f2ff"/><use xlink:href="#e" transform="matrix(1,0,0,1,673.7866148913195,-1878.0000000000002) translate(30.630134386346764 15.371828716145082)"/><use xlink:href="#f" transform="matrix(1,0,0,1,673.7866148913195,-1878.0000000000002) translate(45.44761634070876 31.67994343207181)"/><path d="M658.14-1354a6 6 0 0 1 6-6H812.4a6 6 0 0 1 6 6v48a6 6 0 0 1-6 6H664.13a6 6 0 0 1-6-6z" stroke="#9391ff" stroke-width="2" fill="#f2f2ff"/><use xlink:href="#g" transform="matrix(1,0,0,1,670.1429702781088,-1348) translate(30.719006970021983 15.111192059830097)"/><use xlink:href="#h" transform="matrix(1,0,0,1,670.1429702781088,-1348) translate(47.57548046437581 31.14279494565193)"/><path d="M431.02-1513.96a6 6 0 0 1-6-6v-146.32a6 6 0 0 1 6-6h52.5a6 6 0 0 1 6 6v146.32a6 6 0 0 1-6 6z" stroke="#9391ff" stroke-width="2" fill="#f2f2ff"/><use xlink:href="#i" transform="matrix(6.123233995736766e-17,-1,1,6.123233995736766e-17,437.02315561111755,-1525.9619191347565) translate(29.121997493759338 16.470205714599278)"/><use xlink:href="#j" transform="matrix(6.123233995736766e-17,-1,1,6.123233995736766e-17,437.02315561111755,-1525.9619191347565) translate(42.80732437764442 33.82993953505857)"/><path d="M999.2-1512.28a6 6 0 0 1-6-6v-148a6 6 0 0 1 6-6h52.5a6 6 0 0 1 6 6v148a6 6 0 0 1-6 6z" stroke="#9391ff" stroke-width="2" fill="#f2f2ff"/><use xlink:href="#k" transform="matrix(6.123233995736766e-17,-1,1,6.123233995736766e-17,1005.1971177590353,-1524.2784259940925) translate(32.09704708505659 16.470205714599278)"/><use xlink:href="#l" transform="matrix(6.123233995736766e-17,-1,1,6.123233995736766e-17,1005.1971177590353,-1524.2784259940925) translate(45.08882528119935 33.82993953505857)"/><path d="M740-1984.5v61.12" stroke="#3a414a" fill="none"/><path d="M740.48-1984.5h-.96v-.5h.96z" stroke="#3a414a" stroke-width=".05" fill="#3a414a"/><path d="M740-1908.62l-4.63-14.26h9.26z" stroke="#3a414a" fill="#3a414a"/><path d="M660-2039a6 6 0 0 1 6-6h148.25a6 6 0 0 1 6 6v48a6 6 0 0 1-6 6H666a6 6 0 0 1-6-6z" fill="#fff" fill-opacity="0"/><use xlink:href="#m" transform="matrix(1,0,0,1,665,-2040) translate(38.692738083556264 32.379742389968285)"/><path d="M740-1285.5v63.12M740-1285.5v-.5" stroke="#3a414a" fill="none"/><path d="M740-1207.62l-4.63-14.26h9.26z" stroke="#3a414a" fill="#3a414a"/><path d="M659.34-1199a6 6 0 0 1 6-6H813.6a6 6 0 0 1 6 6v48a6 6 0 0 1-6 6H665.33a6 6 0 0 1-6-6z" fill="#fff" fill-opacity="0"/><use xlink:href="#m" transform="matrix(1,0,0,1,664.3370580897647,-1200) translate(38.692738083556264 32.379742389968285)"/><path d="M320.75-1593.12h86.9" stroke="#3a414a" fill="none"/><path d="M320.76-1592.64h-.5v-.95h.5z" stroke="#3a414a" stroke-width=".05" fill="#3a414a"/><path d="M422.4-1593.12l-14.26 4.63v-9.26z" stroke="#3a414a" fill="#3a414a"/><path d="M160-1617.12a6 6 0 0 1 6-6h148.25a6 6 0 0 1 6 6v48a6 6 0 0 1-6 6H166a6 6 0 0 1-6-6z" fill="#fff" fill-opacity="0"/><use xlink:href="#n" transform="matrix(1,0,0,1,165,-1618.1201725644244) translate(14.823411714680189 32.379742389968285)"/><path d="M1178.75-1614a6 6 0 0 1 6-6H1333a6 6 0 0 1 6 6v48a6 6 0 0 1-6 6h-148.25a6 6 0 0 1-6-6z" fill="#fff" fill-opacity="0"/><use xlink:href="#n" transform="matrix(1,0,0,1,1183.7485472964097,-1615) translate(14.823411714680189 32.379742389968285)"/><path d="M1070.5-1590.84l91.87.7M1070.5-1590.84h-.5" stroke="#3a414a" fill="none"/><path d="M1177.13-1590l-14.3 4.5.07-9.26z" stroke="#3a414a" fill="#3a414a"/><path d="M686.92-1783.34c0 .28-.22.5-.5.5-.27 0-.5-.22-.5-.5 0-.27.23-.5.5-.5.28 0 .5.23.5.5zm2.72-2.8c0 .27-.23.5-.5.5-.28 0-.5-.23-.5-.5 0-.28.22-.5.5-.5.27 0 .5.22.5.5zm3.03-2.47c0 .26-.22.48-.5.48-.27 0-.5-.22-.5-.5 0-.27.23-.5.5-.5.28 0 .5.23.5.5zm3.2-2.25c0 .27-.22.5-.5.5-.27 0-.5-.23-.5-.5 0-.28.23-.5.5-.5.28 0 .5.22.5.5zm3.38-2c0 .28-.23.5-.5.5-.28 0-.5-.22-.5-.5 0-.27.22-.5.5-.5.27 0 .5.23.5.5zm3.4-1.94c0 .3-.23.5-.5.5-.28 0-.5-.2-.5-.5 0-.26.22-.5.5-.5.27 0 .5.24.5.5zm3.46-1.8c0 .27-.22.5-.5.5-.27 0-.5-.23-.5-.5 0-.28.23-.5.5-.5.28 0 .5.22.5.5zm3.47-1.82c0 .28-.22.5-.5.5s-.5-.22-.5-.5.22-.5.5-.5.5.22.5.5zm3.47-1.82c0 .28-.23.5-.5.5-.28 0-.5-.22-.5-.5 0-.27.22-.5.5-.5.27 0 .5.23.5.5zm3.46-1.8c0 .26-.22.5-.5.5-.27 0-.5-.24-.5-.5 0-.3.23-.5.5-.5.28 0 .5.2.5.5zm3.47-1.83c0 .28-.23.5-.5.5-.28 0-.5-.22-.5-.5s.22-.5.5-.5c.27 0 .5.22.5.5zm3.46-1.82c0 .3-.22.5-.5.5-.27 0-.5-.2-.5-.5 0-.26.23-.5.5-.5.28 0 .5.24.5.5zm3.47-1.8c0 .27-.23.5-.5.5-.28 0-.5-.23-.5-.5 0-.28.22-.5.5-.5.27 0 .5.22.5.5zm3.33-2.03c0 .28-.22.5-.5.5-.27 0-.5-.22-.5-.5s.23-.5.5-.5c.28 0 .5.22.5.5zm3.12-2.36c0 .3-.22.5-.5.5s-.5-.2-.5-.5c0-.26.22-.5.5-.5s.5.24.5.5zm2.87-2.64c0 .28-.22.5-.5.5-.27 0-.5-.22-.5-.5 0-.27.23-.5.5-.5.28 0 .5.23.5.5zm2.5-3c0 .27-.23.5-.5.5-.28 0-.5-.23-.5-.5 0-.28.22-.5.5-.5.27 0 .5.22.5.5zm1.95-3.38c0 .27-.22.5-.5.5-.27 0-.5-.23-.5-.5 0-.28.23-.5.5-.5.28 0 .5.22.5.5zm1.25-3.7c0 .27-.22.5-.5.5s-.5-.23-.5-.5c0-.28.22-.5.5-.5s.5.22.5.5z" fill="#3a414a"/><path d="M681.7-1771.04l-2.34-14.82 14 5.38z" stroke="#3a414a" fill="#3a414a"/><path d="M742.4-1828.55h-.96v-.45h.95z" stroke="#3a414a" stroke-width=".05" fill="#3a414a"/><path d="M630.68-1455.55c0 .28-.22.5-.5.5-.27 0-.5-.22-.5-.5 0-.27.23-.5.5-.5.28 0 .5.23.5.5zm3 2.62c0 .28-.23.5-.5.5-.28 0-.5-.22-.5-.5s.22-.5.5-.5c.27 0 .5.22.5.5zm3 2.62c0 .26-.24.5-.5.5-.3 0-.5-.24-.5-.5 0-.3.2-.5.5-.5.26 0 .5.2.5.5zm2.98 2.6c0 .28-.23.5-.5.5-.28 0-.5-.22-.5-.5 0-.27.22-.5.5-.5.27 0 .5.23.5.5zm3 2.62c0 .28-.23.5-.5.5-.28 0-.5-.22-.5-.5 0-.27.22-.5.5-.5.27 0 .5.23.5.5zm2.98 2.62c0 .28-.22.5-.5.5-.27 0-.5-.22-.5-.5s.23-.5.5-.5c.28 0 .5.22.5.5zm3 2.62c0 .27-.23.5-.5.5-.28 0-.5-.23-.5-.5 0-.28.22-.5.5-.5.27 0 .5.22.5.5zm3 2.62c0 .27-.24.5-.5.5-.3 0-.5-.23-.5-.5 0-.28.2-.5.5-.5.26 0 .5.22.5.5zm2.98 2.6c0 .3-.22.5-.5.5s-.5-.2-.5-.5c0-.26.22-.5.5-.5s.5.24.5.5zm3 2.63c0 .3-.23.5-.5.5-.28 0-.5-.2-.5-.5 0-.27.22-.5.5-.5.27 0 .5.23.5.5zm3 2.63c0 .27-.24.5-.5.5-.3 0-.5-.23-.5-.5 0-.28.2-.5.5-.5.26 0 .5.22.5.5zm2.98 2.6c0 .3-.23.5-.5.5-.28 0-.5-.2-.5-.5 0-.26.22-.5.5-.5.27 0 .5.24.5.5zm3 2.63c0 .28-.23.5-.5.5-.3 0-.5-.22-.5-.5 0-.27.2-.5.5-.5.27 0 .5.23.5.5zm2.98 2.62c0 .28-.22.5-.5.5-.27 0-.5-.22-.5-.5s.23-.5.5-.5c.28 0 .5.22.5.5zm3 2.62c0 .27-.23.5-.5.5-.28 0-.5-.23-.5-.5 0-.28.22-.5.5-.5.27 0 .5.22.5.5zm3 2.62c0 .27-.24.5-.5.5-.3 0-.5-.23-.5-.5 0-.28.2-.5.5-.5.26 0 .5.22.5.5zm2.98 2.6c0 .3-.22.5-.5.5s-.5-.2-.5-.5c0-.26.22-.5.5-.5s.5.24.5.5zm3 2.63c0 .28-.23.5-.5.5-.28 0-.5-.22-.5-.5s.22-.5.5-.5c.27 0 .5.22.5.5zm2.98 2.62c0 .27-.22.5-.5.5-.27 0-.5-.23-.5-.5 0-.28.23-.5.5-.5.28 0 .5.22.5.5zm3 2.62c0 .26-.23.48-.5.48-.28 0-.5-.22-.5-.5 0-.27.22-.5.5-.5.27 0 .5.23.5.5zm3 2.6c0 .28-.24.5-.5.5-.3 0-.5-.22-.5-.5 0-.27.2-.5.5-.5.26 0 .5.23.5.5zm2.98 2.62c0 .28-.22.5-.5.5s-.5-.22-.5-.5.22-.5.5-.5.5.22.5.5zm3 2.62c0 .27-.23.5-.5.5-.28 0-.5-.23-.5-.5 0-.28.22-.5.5-.5.27 0 .5.22.5.5zm3 2.62c0 .27-.24.5-.5.5-.3 0-.5-.23-.5-.5 0-.28.2-.5.5-.5.26 0 .5.22.5.5zm2.98 2.6c0 .3-.23.5-.5.5-.28 0-.5-.2-.5-.5 0-.26.22-.5.5-.5.27 0 .5.24.5.5zm3 2.63c0 .27-.23.5-.5.5-.3 0-.5-.23-.5-.5 0-.3.2-.5.5-.5.27 0 .5.2.5.5zm2.98 2.6c0 .28-.22.5-.5.5-.27 0-.5-.22-.5-.5 0-.27.23-.5.5-.5.28 0 .5.23.5.5zm3 2.63c0 .27-.23.5-.5.5-.28 0-.5-.23-.5-.5 0-.28.22-.5.5-.5.27 0 .5.22.5.5zm3 2.6c0 .3-.24.5-.5.5-.3 0-.5-.2-.5-.5 0-.26.2-.5.5-.5.26 0 .5.24.5.5zm2.98 2.63c0 .28-.23.5-.5.5-.28 0-.5-.22-.5-.5s.22-.5.5-.5c.27 0 .5.22.5.5zm3 2.62c0 .27-.23.5-.5.5-.3 0-.5-.23-.5-.5 0-.28.2-.5.5-.5.27 0 .5.22.5.5zm2.98 2.62c0 .27-.22.5-.5.5-.27 0-.5-.23-.5-.5 0-.28.23-.5.5-.5.28 0 .5.22.5.5zm3 2.6c0 .3-.23.5-.5.5-.28 0-.5-.2-.5-.5 0-.26.22-.5.5-.5.27 0 .5.24.5.5z" fill="#3a414a"/><path d="M630.5-1455.9l-.62.72-.45-.4.75-.6z" stroke="#3a414a" stroke-width=".05" fill="#3a414a"/><path d="M737.05-1362.07l-13.8-5.9 6.1-6.98z" stroke="#3a414a" fill="#3a414a"/><path d="M929.67-1493.7c0 .3-.22.5-.5.5-.27 0-.5-.2-.5-.5 0-.27.23-.5.5-.5.28 0 .5.23.5.5zm2.17-3.38c0 .27-.22.5-.5.5-.27 0-.5-.23-.5-.5 0-.28.23-.5.5-.5.28 0 .5.22.5.5zm2.17-3.4c0 .28-.2.5-.5.5-.27 0-.5-.22-.5-.5 0-.27.23-.5.5-.5.3 0 .5.23.5.5zm2.18-3.38c0 .27-.23.5-.5.5-.28 0-.5-.23-.5-.5 0-.28.22-.5.5-.5.27 0 .5.22.5.5zm2.17-3.4c0 .28-.23.5-.5.5-.28 0-.5-.22-.5-.5 0-.27.22-.5.5-.5.27 0 .5.23.5.5zm2.16-3.4c0 .3-.2.5-.5.5-.26 0-.5-.2-.5-.5 0-.26.24-.5.5-.5.3 0 .5.24.5.5zm2.18-3.38c0 .28-.22.5-.5.5-.27 0-.5-.22-.5-.5s.23-.5.5-.5c.28 0 .5.22.5.5zm2.17-3.4c0 .3-.22.5-.5.5s-.5-.2-.5-.5c0-.27.22-.5.5-.5s.5.23.5.5zm2.17-3.38c0 .27-.23.5-.5.5-.28 0-.5-.23-.5-.5 0-.28.22-.5.5-.5.27 0 .5.22.5.5zm2.17-3.4c0 .28-.24.5-.5.5-.3 0-.5-.22-.5-.5 0-.27.2-.5.5-.5.26 0 .5.23.5.5zm2.15-3.38c0 .27-.22.5-.5.5-.27 0-.5-.23-.5-.5 0-.28.23-.5.5-.5.28 0 .5.22.5.5zm2.17-3.4c0 .28-.22.5-.5.5-.27 0-.5-.22-.5-.5 0-.27.23-.5.5-.5.28 0 .5.23.5.5zm2.17-3.4c0 .3-.23.5-.5.5-.3 0-.5-.2-.5-.5 0-.26.2-.5.5-.5.27 0 .5.24.5.5zm2.16-3.38c0 .28-.23.5-.5.5-.28 0-.5-.22-.5-.5 0-.27.22-.5.5-.5.27 0 .5.23.5.5zm2.16-3.4c0 .3-.22.5-.5.5-.27 0-.5-.2-.5-.5 0-.26.23-.5.5-.5.28 0 .5.24.5.5zm2.17-3.38c0 .28-.23.5-.5.5-.28 0-.5-.22-.5-.5s.22-.5.5-.5c.27 0 .5.22.5.5zm2.16-3.4c0 .28-.22.5-.5.5-.27 0-.5-.22-.5-.5 0-.27.23-.5.5-.5.28 0 .5.23.5.5zm2.17-3.38c0 .27-.23.5-.5.5-.28 0-.5-.23-.5-.5 0-.28.22-.5.5-.5.27 0 .5.22.5.5zm2.17-3.4c0 .28-.23.5-.5.5-.28 0-.5-.22-.5-.5 0-.27.22-.5.5-.5.27 0 .5.23.5.5zm2.16-3.4c0 .3-.22.5-.5.5-.27 0-.5-.2-.5-.5 0-.26.23-.5.5-.5.28 0 .5.24.5.5zm2.17-3.38c0 .28-.22.5-.5.5-.27 0-.5-.22-.5-.5 0-.27.23-.5.5-.5.28 0 .5.23.5.5zm2.17-3.4c0 .3-.22.5-.5.5s-.5-.2-.5-.5c0-.26.22-.5.5-.5s.5.24.5.5zm2.17-3.38c0 .28-.23.5-.5.5-.28 0-.5-.22-.5-.5s.22-.5.5-.5c.27 0 .5.22.5.5zm2.17-3.4c0 .3-.23.5-.5.5-.28 0-.5-.2-.5-.5 0-.27.22-.5.5-.5.27 0 .5.23.5.5zm2.17-3.38c0 .27-.22.5-.5.5-.27 0-.5-.23-.5-.5 0-.28.23-.5.5-.5.28 0 .5.22.5.5zm2.17-3.4c0 .28-.22.5-.5.5-.27 0-.5-.22-.5-.5 0-.27.23-.5.5-.5.28 0 .5.23.5.5z" fill="#3a414a"/><path d="M929.58-1493.44l-.72 1.13.04-.95v-.63z" stroke="#3a414a" stroke-width=".05" fill="#3a414a"/><path d="M991.33-1590.9l-3.78 14.5-7.8-5z" stroke="#3a414a" fill="#3a414a"/><path d="M491.54-1593.13c0 .28-.23.5-.5.5-.28 0-.5-.22-.5-.5s.22-.5.5-.5c.27 0 .5.22.5.5zm4-.08c0 .26-.22.5-.5.5-.27 0-.5-.24-.5-.5 0-.3.23-.5.5-.5.28 0 .5.2.5.5zm4.02-.1c0 .28-.23.5-.5.5-.28 0-.5-.22-.5-.5 0-.27.22-.5.5-.5.27 0 .5.23.5.5zm4-.08c0 .28-.22.5-.5.5-.27 0-.5-.22-.5-.5s.23-.5.5-.5c.28 0 .5.22.5.5zm4.02-.08c0 .27-.23.5-.5.5-.28 0-.5-.23-.5-.5 0-.28.22-.5.5-.5.27 0 .5.22.5.5zm4-.1c0 .3-.22.5-.5.5-.27 0-.5-.2-.5-.5 0-.26.23-.5.5-.5.28 0 .5.24.5.5zm4.02-.08c0 .28-.23.5-.5.5-.28 0-.5-.22-.5-.5s.22-.5.5-.5c.27 0 .5.22.5.5zm4-.25c0 .28-.22.5-.5.5-.27 0-.5-.22-.5-.5 0-.27.23-.5.5-.5.28 0 .5.23.5.5zm4-.24c0 .27-.22.5-.5.5-.27 0-.5-.23-.5-.5 0-.28.23-.5.5-.5.28 0 .5.22.5.5zm4-.26c0 .28-.22.5-.5.5-.27 0-.5-.22-.5-.5 0-.27.23-.5.5-.5.28 0 .5.23.5.5zm4-.25c0 .28-.2.5-.5.5-.26 0-.5-.22-.5-.5 0-.27.24-.5.5-.5.3 0 .5.23.5.5zm4-.25c0 .28-.2.5-.5.5-.26 0-.5-.22-.5-.5s.24-.5.5-.5c.3 0 .5.22.5.5zm4-.28c0 .27-.2.5-.5.5-.26 0-.5-.23-.5-.5 0-.28.24-.5.5-.5.3 0 .5.22.5.5zm4-.42c0 .27-.22.5-.5.5-.27 0-.5-.23-.5-.5 0-.28.23-.5.5-.5.28 0 .5.22.5.5zm4-.43c0 .28-.23.5-.5.5-.28 0-.5-.22-.5-.5 0-.27.22-.5.5-.5.27 0 .5.23.5.5zm3.98-.42c0 .28-.22.5-.5.5-.27 0-.5-.22-.5-.5 0-.27.23-.5.5-.5.28 0 .5.23.5.5zm4-.42c0 .28-.23.5-.5.5-.3 0-.5-.22-.5-.5 0-.27.2-.5.5-.5.27 0 .5.23.5.5zm3.98-.42c0 .3-.22.5-.5.5s-.5-.2-.5-.5c0-.26.22-.5.5-.5s.5.24.5.5zm4-.4c0 .27-.23.5-.5.5-.3 0-.5-.23-.5-.5 0-.28.2-.5.5-.5.27 0 .5.22.5.5zm3.96-.6c0 .28-.23.5-.5.5-.28 0-.5-.22-.5-.5 0-.27.22-.5.5-.5.27 0 .5.23.5.5zm3.96-.6c0 .3-.22.5-.5.5-.27 0-.5-.2-.5-.5 0-.26.23-.5.5-.5.28 0 .5.24.5.5zm3.97-.58c0 .28-.22.5-.5.5-.27 0-.5-.22-.5-.5s.23-.5.5-.5c.28 0 .5.22.5.5zm3.97-.6c0 .28-.22.5-.5.5s-.5-.22-.5-.5c0-.27.22-.5.5-.5s.5.23.5.5zm3.97-.6c0 .3-.24.5-.5.5-.3 0-.5-.2-.5-.5 0-.26.2-.5.5-.5.26 0 .5.24.5.5zm3.95-.58c0 .28-.22.5-.5.5-.27 0-.5-.22-.5-.5 0-.27.23-.5.5-.5.28 0 .5.23.5.5zm3.97-.6c0 .3-.22.5-.5.5s-.5-.2-.5-.5c0-.27.22-.5.5-.5s.5.23.5.5zm3.97-.58c0 .27-.24.5-.5.5-.3 0-.5-.23-.5-.5 0-.28.2-.5.5-.5.26 0 .5.22.5.5zm3.94-.67c0 .26-.22.48-.5.48-.27 0-.5-.22-.5-.5 0-.27.23-.5.5-.5.28 0 .5.23.5.5zm3.96-.7c0 .3-.23.5-.5.5-.28 0-.5-.2-.5-.5 0-.27.22-.5.5-.5.27 0 .5.23.5.5zm3.95-.66c0 .27-.22.5-.5.5s-.5-.23-.5-.5c0-.28.22-.5.5-.5s.5.22.5.5zm3.96-.68c0 .28-.22.5-.5.5-.27 0-.5-.22-.5-.5s.23-.5.5-.5c.28 0 .5.22.5.5zm3.96-.67c0 .26-.22.5-.5.5s-.5-.24-.5-.5c0-.3.22-.5.5-.5s.5.2.5.5zm3.95-.7c0 .3-.2.5-.5.5-.26 0-.5-.2-.5-.5 0-.27.24-.5.5-.5.3 0 .5.23.5.5zm3.97-.66c0 .27-.23.5-.5.5-.28 0-.5-.23-.5-.5 0-.28.22-.5.5-.5.27 0 .5.22.5.5zm3.95-.68c0 .28-.22.5-.5.5-.27 0-.5-.22-.5-.5s.23-.5.5-.5c.28 0 .5.22.5.5zm3.96-.67c0 .26-.23.5-.5.5-.28 0-.5-.24-.5-.5 0-.3.22-.5.5-.5.27 0 .5.2.5.5zm3.95-.7c0 .3-.23.5-.5.5-.28 0-.5-.2-.5-.5 0-.26.22-.5.5-.5.27 0 .5.24.5.5zm3.95-.66c0 .27-.22.5-.5.5-.27 0-.5-.23-.5-.5 0-.28.23-.5.5-.5.28 0 .5.22.5.5zm3.96-.68c0 .28-.23.5-.5.5-.28 0-.5-.22-.5-.5 0-.27.22-.5.5-.5.27 0 .5.23.5.5zm3.95-.67c0 .26-.23.5-.5.5-.3 0-.5-.24-.5-.5 0-.3.2-.5.5-.5.27 0 .5.2.5.5zm3.94-.7c0 .3-.22.5-.5.5-.27 0-.5-.2-.5-.5 0-.26.23-.5.5-.5.28 0 .5.24.5.5zm3.96-.66c0 .27-.22.5-.5.5s-.5-.23-.5-.5c0-.28.22-.5.5-.5s.5.22.5.5zm3.95-.68c0 .28-.22.5-.5.5-.27 0-.5-.22-.5-.5 0-.27.23-.5.5-.5.28 0 .5.23.5.5zm3.96-.67c0 .27-.22.5-.5.5-.27 0-.5-.23-.5-.5 0-.3.23-.5.5-.5.28 0 .5.2.5.5zm3.96-.7c0 .3-.22.5-.5.5s-.5-.2-.5-.5c0-.26.22-.5.5-.5s.5.24.5.5zm3.96-.66c0 .28-.23.5-.5.5-.28 0-.5-.22-.5-.5s.22-.5.5-.5c.27 0 .5.22.5.5zm3.95-.68c0 .28-.22.5-.5.5s-.5-.22-.5-.5c0-.27.22-.5.5-.5s.5.23.5.5zm3.95-.67c0 .26-.22.5-.5.5-.27 0-.5-.24-.5-.5 0-.3.23-.5.5-.5.28 0 .5.2.5.5zm3.96-.7c0 .3-.23.5-.5.5-.28 0-.5-.2-.5-.5 0-.26.22-.5.5-.5.27 0 .5.24.5.5zm3.95-.66c0 .28-.22.5-.5.5-.27 0-.5-.22-.5-.5s.23-.5.5-.5c.28 0 .5.22.5.5zm3.96-.67c0 .27-.24.5-.5.5-.3 0-.5-.23-.5-.5 0-.28.2-.5.5-.5.26 0 .5.22.5.5zm3.94-.66c0 .28-.22.5-.5.5-.27 0-.5-.22-.5-.5 0-.27.23-.5.5-.5.28 0 .5.23.5.5zm4-.4c0 .26-.23.5-.5.5-.28 0-.5-.24-.5-.5 0-.3.22-.5.5-.5.27 0 .5.2.5.5zm3.98-.43c0 .27-.22.5-.5.5s-.5-.23-.5-.5c0-.28.22-.5.5-.5s.5.22.5.5zm4-.43c0 .28-.23.5-.5.5-.3 0-.5-.22-.5-.5 0-.27.2-.5.5-.5.27 0 .5.23.5.5zm3.98-.42c0 .28-.23.5-.5.5-.28 0-.5-.22-.5-.5 0-.27.22-.5.5-.5.27 0 .5.23.5.5zm4-.42c0 .28-.24.5-.5.5-.3 0-.5-.22-.5-.5 0-.27.2-.5.5-.5.26 0 .5.23.5.5zm3.98-.42c0 .28-.23.5-.5.5-.28 0-.5-.22-.5-.5 0-.27.22-.5.5-.5.27 0 .5.23.5.5zm4-.27c0 .28-.23.5-.5.5-.28 0-.5-.22-.5-.5 0-.27.22-.5.5-.5.27 0 .5.23.5.5zm4-.25c0 .28-.22.5-.5.5s-.5-.22-.5-.5c0-.27.22-.5.5-.5s.5.23.5.5zm4-.25c0 .28-.22.5-.5.5-.27 0-.5-.22-.5-.5 0-.27.23-.5.5-.5.28 0 .5.23.5.5zm4-.25c0 .28-.22.5-.5.5-.27 0-.5-.22-.5-.5s.23-.5.5-.5c.28 0 .5.22.5.5zm4-.25c0 .27-.2.5-.5.5-.26 0-.5-.23-.5-.5 0-.28.24-.5.5-.5.3 0 .5.22.5.5zm4-.25c0 .27-.2.5-.5.5-.26 0-.5-.23-.5-.5 0-.28.24-.5.5-.5.3 0 .5.22.5.5zm4.02-.1c0 .3-.22.5-.5.5-.27 0-.5-.2-.5-.5 0-.27.23-.5.5-.5.28 0 .5.23.5.5z" fill="#3a414a"/><path d="M491.06-1592.66l-.53.02v-.95h.5z" stroke="#3a414a" stroke-width=".05" fill="#3a414a"/><path d="M764.38-1623.83l-14.17 4.93-.18-9.27z" stroke="#3a414a" fill="#3a414a"/><path d="M865.83-1623.85c0 .27-.23.5-.5.5-.28 0-.5-.23-.5-.5 0-.28.22-.5.5-.5.27 0 .5.22.5.5zm3.97.08c0 .28-.22.5-.5.5-.27 0-.5-.22-.5-.5s.23-.5.5-.5c.28 0 .5.22.5.5zm3.98.2c0 .3-.23.5-.5.5-.28 0-.5-.2-.5-.5 0-.26.22-.5.5-.5.27 0 .5.24.5.5zm3.96.34c0 .28-.22.5-.5.5s-.5-.22-.5-.5.22-.5.5-.5.5.22.5.5zm3.95.45c0 .28-.23.5-.5.5-.28 0-.5-.22-.5-.5s.22-.5.5-.5c.27 0 .5.22.5.5zm3.93.58c0 .28-.23.5-.5.5-.28 0-.5-.22-.5-.5 0-.27.22-.5.5-.5.27 0 .5.23.5.5zm3.9.74c0 .27-.2.5-.5.5-.27 0-.5-.23-.5-.5 0-.28.23-.5.5-.5.3 0 .5.22.5.5zm3.9.85c0 .26-.23.5-.5.5-.28 0-.5-.24-.5-.5 0-.3.22-.5.5-.5.27 0 .5.2.5.5zm3.86.94c0 .28-.24.5-.5.5-.3 0-.5-.22-.5-.5 0-.27.2-.5.5-.5.26 0 .5.23.5.5zm3.82 1.08c0 .27-.23.5-.5.5-.28 0-.5-.23-.5-.5 0-.28.22-.5.5-.5.27 0 .5.22.5.5zm3.8 1.2c0 .27-.23.5-.5.5-.3 0-.5-.23-.5-.5 0-.28.2-.5.5-.5.27 0 .5.22.5.5zm3.77 1.24c0 .28-.24.5-.5.5-.3 0-.5-.22-.5-.5 0-.27.2-.5.5-.5.26 0 .5.23.5.5zm3.7 1.4c0 .27-.2.5-.5.5-.26 0-.5-.23-.5-.5 0-.28.24-.5.5-.5.3 0 .5.22.5.5zm3.74 1.4c0 .27-.22.5-.5.5-.27 0-.5-.23-.5-.5 0-.3.23-.5.5-.5.28 0 .5.2.5.5zm3.7 1.45c0 .3-.22.5-.5.5-.27 0-.5-.2-.5-.5 0-.26.23-.5.5-.5.28 0 .5.24.5.5zm3.7 1.5c0 .27-.23.5-.5.5-.28 0-.5-.23-.5-.5 0-.28.22-.5.5-.5.27 0 .5.22.5.5zm3.68 1.48c0 .28-.22.5-.5.5-.27 0-.5-.22-.5-.5 0-.27.23-.5.5-.5.28 0 .5.23.5.5zm3.7 1.5c0 .27-.23.5-.5.5-.28 0-.5-.23-.5-.5 0-.3.22-.5.5-.5.27 0 .5.2.5.5zm3.68 1.47c0 .28-.22.5-.5.5-.27 0-.5-.22-.5-.5 0-.27.23-.5.5-.5.28 0 .5.23.5.5zm3.7 1.5c0 .27-.23.5-.5.5-.28 0-.5-.23-.5-.5 0-.3.22-.5.5-.5.27 0 .5.2.5.5zm3.7 1.48c0 .27-.24.5-.5.5-.3 0-.5-.23-.5-.5 0-.28.2-.5.5-.5.26 0 .5.22.5.5zm3.68 1.48c0 .3-.23.5-.5.5-.28 0-.5-.2-.5-.5 0-.27.22-.5.5-.5.27 0 .5.23.5.5zm3.7 1.5c0 .27-.24.5-.5.5-.3 0-.5-.23-.5-.5 0-.28.2-.5.5-.5.26 0 .5.22.5.5zm3.76 1.25c0 .28-.22.5-.5.5-.27 0-.5-.22-.5-.5s.23-.5.5-.5c.28 0 .5.22.5.5zm3.8 1.2c0 .28-.23.5-.5.5-.28 0-.5-.22-.5-.5s.22-.5.5-.5c.27 0 .5.22.5.5zm3.83 1.07c0 .28-.23.5-.5.5-.28 0-.5-.22-.5-.5 0-.27.22-.5.5-.5.27 0 .5.23.5.5zm3.86.96c0 .27-.23.5-.5.5-.28 0-.5-.23-.5-.5 0-.28.22-.5.5-.5.27 0 .5.22.5.5zm3.88.85c0 .27-.2.5-.5.5-.26 0-.5-.23-.5-.5 0-.28.24-.5.5-.5.3 0 .5.22.5.5zm3.92.73c0 .28-.22.5-.5.5-.27 0-.5-.22-.5-.5s.23-.5.5-.5c.28 0 .5.22.5.5zm3.94.58c0 .28-.22.5-.5.5-.27 0-.5-.22-.5-.5s.23-.5.5-.5c.28 0 .5.22.5.5z" fill="#3a414a"/><path d="M865.35-1624.33l-.02.95h-.53l.03-.46v-.5z" stroke="#3a414a" stroke-width=".05" fill="#3a414a"/><path d="M990.58-1592.38l-14.54 3.68.6-9.25z" stroke="#3a414a" fill="#3a414a"/><path d="M731.76-1720.68c0 .28-.23.5-.5.5-.28 0-.5-.22-.5-.5 0-.27.22-.5.5-.5.27 0 .5.23.5.5zm3.98.12c0 .27-.23.5-.5.5-.28 0-.5-.23-.5-.5 0-.28.22-.5.5-.5.27 0 .5.22.5.5zm3.98.1c0 .3-.23.5-.5.5-.28 0-.5-.2-.5-.5 0-.27.22-.5.5-.5.27 0 .5.23.5.5zm3.97.12c0 .28-.23.5-.5.5-.28 0-.5-.22-.5-.5 0-.27.22-.5.5-.5.27 0 .5.23.5.5zm3.96.25c0 .3-.22.5-.5.5-.27 0-.5-.2-.5-.5 0-.26.23-.5.5-.5.28 0 .5.24.5.5zm3.97.36c0 .28-.23.5-.5.5-.28 0-.5-.22-.5-.5 0-.27.22-.5.5-.5.27 0 .5.23.5.5zm3.96.35c0 .3-.23.5-.5.5-.28 0-.5-.2-.5-.5 0-.26.22-.5.5-.5.27 0 .5.24.5.5zm3.94.53c0 .28-.22.5-.5.5s-.5-.22-.5-.5.22-.5.5-.5.5.22.5.5zm3.94.58c0 .3-.23.5-.5.5-.28 0-.5-.2-.5-.5 0-.26.22-.5.5-.5.27 0 .5.24.5.5zm3.92.7c0 .27-.23.5-.5.5-.28 0-.5-.23-.5-.5 0-.3.22-.5.5-.5.27 0 .5.2.5.5zm3.9.8c0 .28-.23.5-.5.5-.28 0-.5-.22-.5-.5 0-.27.22-.5.5-.5.27 0 .5.23.5.5zm3.86.93c0 .28-.22.5-.5.5s-.5-.22-.5-.5c0-.27.22-.5.5-.5s.5.23.5.5zm3.84 1.05c0 .27-.22.5-.5.5-.27 0-.5-.23-.5-.5 0-.28.23-.5.5-.5.28 0 .5.22.5.5zm3.78 1.24c0 .28-.22.5-.5.5s-.5-.22-.5-.5c0-.27.22-.5.5-.5s.5.23.5.5zm3.73 1.4c0 .28-.22.5-.5.5-.27 0-.5-.22-.5-.5s.23-.5.5-.5c.28 0 .5.22.5.5zm3.66 1.58c0 .27-.23.5-.5.5-.28 0-.5-.23-.5-.5 0-.28.22-.5.5-.5.27 0 .5.22.5.5zm3.55 1.78c0 .28-.2.5-.5.5-.26 0-.5-.22-.5-.5 0-.27.24-.5.5-.5.3 0 .5.23.5.5zm3.44 2.02c0 .27-.22.5-.5.5-.27 0-.5-.23-.5-.5 0-.28.23-.5.5-.5.28 0 .5.22.5.5zm3.28 2.25c0 .28-.22.5-.5.5-.27 0-.5-.22-.5-.5s.23-.5.5-.5c.28 0 .5.22.5.5zm3.06 2.54c0 .27-.22.5-.5.5-.27 0-.5-.23-.5-.5 0-.3.23-.5.5-.5.28 0 .5.2.5.5zm2.83 2.8c0 .26-.2.5-.5.5-.26 0-.5-.24-.5-.5 0-.3.24-.5.5-.5.3 0 .5.2.5.5zm2.53 3.07c0 .27-.22.5-.5.5-.27 0-.5-.23-.5-.5 0-.28.23-.5.5-.5.28 0 .5.22.5.5zm2.17 3.33c0 .28-.22.5-.5.5-.27 0-.5-.22-.5-.5s.23-.5.5-.5c.28 0 .5.22.5.5z" fill="#3a414a"/><path d="M731.3-1721.15l-.04.95-.53-.02.03-.45v-.5z" stroke="#3a414a" stroke-width=".05" fill="#3a414a"/><path d="M815.1-1674.87l-7.3-13.1 9.1-1.8z" stroke="#3a414a" fill="#3a414a"/><path d="M815.9-1573.95c0 .28-.22.5-.5.5s-.5-.22-.5-.5c0-.27.22-.5.5-.5s.5.23.5.5zm-.08 3.98c0 .28-.23.5-.5.5-.28 0-.5-.22-.5-.5 0-.27.22-.5.5-.5.27 0 .5.23.5.5zm-.08 3.98c0 .3-.23.5-.5.5-.28 0-.5-.2-.5-.5 0-.27.22-.5.5-.5.27 0 .5.23.5.5zm-.24 3.98c0 .28-.22.5-.5.5-.27 0-.5-.22-.5-.5 0-.27.23-.5.5-.5.28 0 .5.23.5.5zm-.25 3.97c0 .28-.22.5-.5.5-.27 0-.5-.22-.5-.5 0-.27.23-.5.5-.5.28 0 .5.23.5.5zm-.4 3.96c0 .3-.22.5-.5.5s-.5-.2-.5-.5c0-.26.22-.5.5-.5s.5.24.5.5zm-.43 3.97c0 .28-.22.5-.5.5s-.5-.22-.5-.5.22-.5.5-.5.5.22.5.5zm-.58 3.94c0 .28-.23.5-.5.5-.28 0-.5-.22-.5-.5 0-.27.22-.5.5-.5.27 0 .5.23.5.5zm-.65 3.93c0 .28-.23.5-.5.5-.3 0-.5-.22-.5-.5 0-.27.2-.5.5-.5.27 0 .5.23.5.5zm-.75 3.9c0 .3-.23.5-.5.5-.28 0-.5-.2-.5-.5 0-.26.22-.5.5-.5.27 0 .5.24.5.5zm-.88 3.9c0 .27-.22.5-.5.5s-.5-.23-.5-.5c0-.28.22-.5.5-.5s.5.22.5.5zm-.95 3.86c0 .26-.23.5-.5.5-.28 0-.5-.24-.5-.5 0-.3.22-.5.5-.5.27 0 .5.2.5.5zm-1.07 3.82c0 .28-.23.5-.5.5-.28 0-.5-.22-.5-.5s.22-.5.5-.5c.27 0 .5.22.5.5zm-1.2 3.8c0 .27-.23.5-.5.5-.28 0-.5-.23-.5-.5 0-.28.22-.5.5-.5.27 0 .5.22.5.5zm-1.3 3.76c0 .28-.2.5-.5.5-.27 0-.5-.22-.5-.5s.23-.5.5-.5c.3 0 .5.22.5.5zm-1.38 3.73c0 .3-.22.5-.5.5-.27 0-.5-.2-.5-.5 0-.27.23-.5.5-.5.28 0 .5.23.5.5zm-1.53 3.68c0 .28-.22.5-.5.5-.27 0-.5-.22-.5-.5 0-.27.23-.5.5-.5.28 0 .5.23.5.5zm-1.6 3.64c0 .28-.23.5-.5.5-.3 0-.5-.22-.5-.5s.2-.5.5-.5c.27 0 .5.22.5.5zm-1.7 3.6c0 .28-.23.5-.5.5-.28 0-.5-.22-.5-.5s.22-.5.5-.5c.27 0 .5.22.5.5zm-1.84 3.53c0 .28-.23.5-.5.5-.28 0-.5-.22-.5-.5s.22-.5.5-.5c.27 0 .5.22.5.5zm-1.9 3.5c0 .28-.2.5-.5.5-.27 0-.5-.22-.5-.5 0-.27.23-.5.5-.5.3 0 .5.23.5.5zm-1.98 3.45c0 .27-.23.5-.5.5-.28 0-.5-.23-.5-.5 0-.28.22-.5.5-.5.27 0 .5.22.5.5zm-2.06 3.4c0 .28-.22.5-.5.5-.27 0-.5-.22-.5-.5 0-.27.23-.5.5-.5.28 0 .5.23.5.5zm-2.13 3.36c0 .28-.23.5-.5.5-.28 0-.5-.22-.5-.5 0-.27.22-.5.5-.5.27 0 .5.23.5.5zm-2.15 3.35c0 .3-.23.5-.5.5-.28 0-.5-.2-.5-.5 0-.27.22-.5.5-.5.27 0 .5.23.5.5zm-2.26 3.3c0 .26-.23.5-.5.5-.28 0-.5-.24-.5-.5 0-.3.22-.5.5-.5.27 0 .5.2.5.5zm-2.27 3.26c0 .28-.22.5-.5.5-.27 0-.5-.22-.5-.5 0-.27.23-.5.5-.5.28 0 .5.23.5.5zm-2.26 3.28c0 .27-.23.5-.5.5-.28 0-.5-.23-.5-.5 0-.28.22-.5.5-.5.27 0 .5.22.5.5zm-2.27 3.27c0 .3-.22.5-.5.5-.27 0-.5-.2-.5-.5 0-.26.23-.5.5-.5.28 0 .5.24.5.5zm-2.26 3.3c0 .26-.22.5-.5.5-.27 0-.5-.24-.5-.5 0-.3.23-.5.5-.5.28 0 .5.2.5.5zm-2.26 3.26c0 .28-.2.5-.5.5-.26 0-.5-.22-.5-.5 0-.27.24-.5.5-.5.3 0 .5.23.5.5zm-2.25 3.28c0 .27-.22.5-.5.5-.27 0-.5-.23-.5-.5 0-.28.23-.5.5-.5.28 0 .5.22.5.5zm-2.26 3.27c0 .3-.23.5-.5.5-.28 0-.5-.2-.5-.5 0-.26.22-.5.5-.5.27 0 .5.24.5.5zm-2.27 3.3c0 .26-.22.5-.5.5-.27 0-.5-.24-.5-.5 0-.3.23-.5.5-.5.28 0 .5.2.5.5zm-2.26 3.26c0 .28-.22.5-.5.5-.27 0-.5-.22-.5-.5 0-.27.23-.5.5-.5.28 0 .5.23.5.5zm-2.26 3.28c0 .28-.2.5-.5.5-.27 0-.5-.22-.5-.5s.23-.5.5-.5c.3 0 .5.22.5.5zm-2.25 3.27c0 .3-.22.5-.5.5s-.5-.2-.5-.5c0-.26.22-.5.5-.5s.5.24.5.5zm-2.1 3.38c0 .28-.23.5-.5.5-.3 0-.5-.22-.5-.5 0-.27.2-.5.5-.5.27 0 .5.23.5.5zm-2 3.45c0 .28-.22.5-.5.5s-.5-.22-.5-.5.22-.5.5-.5.5.22.5.5zm-1.9 3.5c0 .28-.2.5-.5.5-.26 0-.5-.22-.5-.5 0-.27.24-.5.5-.5.3 0 .5.23.5.5zm-1.82 3.53c0 .28-.23.5-.5.5-.28 0-.5-.22-.5-.5 0-.27.22-.5.5-.5.27 0 .5.23.5.5zm-1.7 3.6c0 .28-.22.5-.5.5-.27 0-.5-.22-.5-.5 0-.27.23-.5.5-.5.28 0 .5.23.5.5zm-1.6 3.64c0 .28-.23.5-.5.5-.28 0-.5-.22-.5-.5 0-.27.22-.5.5-.5.27 0 .5.23.5.5zm-1.54 3.68c0 .27-.23.5-.5.5-.28 0-.5-.23-.5-.5 0-.28.22-.5.5-.5.27 0 .5.22.5.5zm-1.4 3.73c0 .28-.22.5-.5.5-.27 0-.5-.22-.5-.5 0-.27.23-.5.5-.5.28 0 .5.23.5.5zm-1.28 3.77c0 .28-.23.5-.5.5-.28 0-.5-.22-.5-.5 0-.27.22-.5.5-.5.27 0 .5.23.5.5zm-1.2 3.8c0 .27-.22.5-.5.5-.27 0-.5-.23-.5-.5 0-.28.23-.5.5-.5.28 0 .5.22.5.5zm-1.07 3.83c0 .28-.22.5-.5.5-.27 0-.5-.22-.5-.5s.23-.5.5-.5c.28 0 .5.22.5.5zm-.95 3.86c0 .28-.22.5-.5.5s-.5-.22-.5-.5c0-.27.22-.5.5-.5s.5.23.5.5zm-.88 3.88c0 .28-.22.5-.5.5-.27 0-.5-.22-.5-.5 0-.27.23-.5.5-.5.28 0 .5.23.5.5zm-.74 3.9c0 .3-.22.5-.5.5s-.5-.2-.5-.5c0-.26.22-.5.5-.5s.5.24.5.5zm-.64 3.94c0 .28-.23.5-.5.5-.28 0-.5-.22-.5-.5s.22-.5.5-.5c.27 0 .5.22.5.5zm-.6 3.94c0 .27-.2.5-.5.5-.26 0-.5-.23-.5-.5 0-.28.24-.5.5-.5.3 0 .5.22.5.5zm-.42 3.95c0 .28-.22.5-.5.5-.27 0-.5-.22-.5-.5 0-.27.23-.5.5-.5.28 0 .5.23.5.5z" fill="#3a414a"/><path d="M815.4-1574.45h.5l-.02.53-.96-.02.02-.53z" stroke="#3a414a" stroke-width=".05" fill="#3a414a"/><path d="M738.33-1362.62l-4.06-14.44 9.26.37z" stroke="#3a414a" fill="#3a414a"/><path d="M575.23-1114a6 6 0 0 1 6-6H902.6a6 6 0 0 1 6 6v48a6 6 0 0 1-6 6H581.22a6 6 0 0 1-6-6z" fill="#fff" fill-opacity="0"/><g><use xlink:href="#o" transform="matrix(1,0,0,1,580.2321828054062,-1115) translate(40.47519875085645 32.379742389968285)"/><use xlink:href="#p" transform="matrix(1,0,0,1,580.2321828054062,-1115) translate(124.37199269898323 32.379742389968285)"/><use xlink:href="#q" transform="matrix(1,0,0,1,580.2321828054062,-1115) translate(174.45844803039532 32.379742389968285)"/><use xlink:href="#r" transform="matrix(1,0,0,1,580.2321828054062,-1115) translate(199.83849125806103 32.379742389968285)"/><use xlink:href="#s" transform="matrix(1,0,0,1,580.2321828054062,-1115) translate(216.93683419754228 32.379742389968285)"/></g><defs><path d="M783 20c-382 0-661-292-661-764 0-473 279-766 661-766 302 0 548 182 601 489h-190c-42-204-217-313-411-313-268 0-476 208-476 590 0 381 209 588 476 588 195 0 369-110 411-313h190c-52 303-296 489-601 489" id="t"/><path d="M653-1490V0H466v-1314h-10L96-1047v-204l324-239h233" id="u"/><g id="a"><use transform="matrix(0.010850694444444444,0,0,0.010850694444444444,0,0)" xlink:href="#t"/><use transform="matrix(0.010850694444444444,0,0,0.010850694444444444,16.23263888888889,0)" xlink:href="#u"/></g><path d="M154 0v-137l495-537c165-179 249-281 249-418 0-156-121-253-280-253-170 0-278 110-278 278H158c0-264 200-443 465-443 266 0 455 183 455 416 0 161-73 288-336 568L416-179v12h687V0H154" id="v"/><g id="b"><use transform="matrix(0.010850694444444444,0,0,0.010850694444444444,0,0)" xlink:href="#t"/><use transform="matrix(0.010850694444444444,0,0,0.010850694444444444,16.23263888888889,0)" xlink:href="#v"/></g><path d="M635 20c-292 0-500-160-510-396h192c11 142 145 229 315 229 187 0 323-105 323-260 0-161-125-274-346-274H488v-165h121c174 0 294-100 294-254 0-148-104-245-266-245-152 0-291 85-297 230H157c8-234 222-395 484-395 278 0 448 188 448 400 0 168-95 291-247 336v12c190 31 301 169 301 357 0 244-216 425-508 425" id="w"/><g id="c"><use transform="matrix(0.010850694444444444,0,0,0.010850694444444444,0,0)" xlink:href="#t"/><use transform="matrix(0.010850694444444444,0,0,0.010850694444444444,16.23263888888889,0)" xlink:href="#w"/></g><path d="M120-303v-155l652-1032h231v1020h202v167h-202V0H821v-303H120zm702-167v-782h-12L323-482v12h499" id="x"/><g id="d"><use transform="matrix(0.010850694444444444,0,0,0.010850694444444444,0,0)" xlink:href="#t"/><use transform="matrix(0.010850694444444444,0,0,0.010850694444444444,16.23263888888889,0)" xlink:href="#x"/></g><path d="M180 0v-1490h224l606 953c40 63 108 177 176 312-27-437-7-821-13-1265h190V0h-226C860-448 622-778 356-1262c27 476 11 792 15 1262H180" id="y"/><path d="M613 24c-304 0-509-231-509-576 0-350 205-580 509-580 305 0 511 230 511 580 0 345-206 576-511 576zm0-161c226 0 329-195 329-415 0-222-103-419-329-419-223 0-326 196-326 419 0 220 103 415 326 415" id="z"/><path d="M158 0v-1118h174v172h12c41-113 157-188 290-188 26 0 70 2 91 3v181c-11-2-60-10-108-10-161 0-279 109-279 260V0H158" id="A"/><path d="M598-1118v154H368v674c0 100 37 144 132 144 23 0 62-6 92-12L629-6c-37 13-88 20-134 20-193 0-307-107-307-290v-688H20v-154h168v-266h180v266h230" id="B"/><path d="M338-670V0H158v-1490h180v566c73-149 190-208 336-208 226 0 379 139 379 422V0H872v-695c0-172-96-275-252-275-161 0-282 109-282 300" id="C"/><path d="M677 24c-213 0-288-135-325-197h-20V0H158v-1490h180v551h14c37-59 106-193 324-193 279 0 474 222 474 576 0 356-194 580-473 580zm-27-161c209 0 317-186 317-421 0-232-105-413-317-413-206 0-314 166-314 413 0 249 111 421 314 421" id="D"/><path d="M537 14c-226 0-379-139-379-422v-710h180v695c0 172 97 275 253 275 160 0 281-109 281-300v-670h181V0H879v-209C806-46 684 14 537 14" id="E"/><path d="M338-670V0H158v-1118h173l1 207c72-158 192-221 342-221 226 0 378 139 378 422V0H872v-695c0-172-96-275-252-275-161 0-282 109-282 300" id="F"/><path d="M577 24c-279 0-473-224-473-580 0-354 195-576 474-576 218 0 287 134 324 193h14v-551h180V0H922v-173h-20C865-111 790 24 577 24zm27-161c203 0 314-172 314-421 0-247-108-413-314-413-212 0-317 181-317 413 0 235 108 421 317 421" id="G"/><g id="e"><use transform="matrix(0.006581160095208528,0,0,0.006581160095208528,0,0)" xlink:href="#y"/><use transform="matrix(0.006581160095208528,0,0,0.006581160095208528,10.154730026906758,0)" xlink:href="#z"/><use transform="matrix(0.006581160095208528,0,0,0.006581160095208528,18.236394623822832,0)" xlink:href="#A"/><use transform="matrix(0.006581160095208528,0,0,0.006581160095208528,23.52106618027528,0)" xlink:href="#B"/><use transform="matrix(0.006581160095208528,0,0,0.006581160095208528,27.930443444065,0)" xlink:href="#C"/><use transform="matrix(0.006581160095208528,0,0,0.006581160095208528,35.90022831936252,0)" xlink:href="#D"/><use transform="matrix(0.006581160095208528,0,0,0.006581160095208528,44.15300307875401,0)" xlink:href="#z"/><use transform="matrix(0.006581160095208528,0,0,0.006581160095208528,52.23466767567008,0)" xlink:href="#E"/><use transform="matrix(0.006581160095208528,0,0,0.006581160095208528,60.20445255096761,0)" xlink:href="#F"/><use transform="matrix(0.006581160095208528,0,0,0.006581160095208528,68.16765626616993,0)" xlink:href="#G"/></g><path d="M370-1490V0H180v-1490h190" id="H"/><path d="M611 442c-248 0-391-105-460-228l146-94c47 65 117 165 314 165 178 0 307-82 307-266v-224h-17C863-141 792-18 576-18c-268 0-472-195-472-546 0-346 197-568 476-568 216 0 288 133 326 193h17v-179h175V29c0 289-215 413-487 413zm-5-620c203 0 314-146 314-390 0-237-108-403-314-403-213 0-319 180-319 403 0 230 109 390 319 390" id="I"/><path d="M628 24c-324 0-524-230-524-574 0-343 198-582 503-582 237 0 487 146 487 559v75H286c9 234 145 362 343 362 132 0 231-58 273-172l174 48C1024-91 857 24 628 24zM287-650h624c-17-190-120-322-304-322-192 0-309 151-320 322" id="J"/><path d="M538 24C308 24 148-78 108-271l171-41c32 123 123 178 257 178 156 0 256-77 256-169 0-77-54-128-164-154l-186-44c-203-48-300-148-300-305 0-192 176-326 414-326 230 0 351 112 402 269l-163 42c-31-80-94-158-238-158-133 0-233 69-233 162 0 83 57 129 188 160l169 40c203 48 298 149 298 302 0 196-179 339-441 339" id="K"/><g id="f"><use transform="matrix(0.006581160095208528,0,0,0.006581160095208528,0,0)" xlink:href="#H"/><use transform="matrix(0.006581160095208528,0,0,0.006581160095208528,3.61963805236469,0)" xlink:href="#F"/><use transform="matrix(0.006581160095208528,0,0,0.006581160095208528,11.582841767567007,0)" xlink:href="#I"/><use transform="matrix(0.006581160095208528,0,0,0.006581160095208528,19.848778847148917,0)" xlink:href="#A"/><use transform="matrix(0.006581160095208528,0,0,0.006581160095208528,24.6990938373176,0)" xlink:href="#J"/><use transform="matrix(0.006581160095208528,0,0,0.006581160095208528,32.55699899099658,0)" xlink:href="#K"/><use transform="matrix(0.006581160095208528,0,0,0.006581160095208528,39.671233053917,0)" xlink:href="#K"/></g><path d="M657 26c-323 0-524-166-541-416h195c15 169 171 246 346 246 202 0 356-106 356-265 5-203-294-238-475-293-239-73-380-191-380-389 0-252 224-419 512-419 294 0 499 171 508 396H992c-17-145-151-228-328-228-193 0-321 102-321 242 0 156 175 211 284 241l149 41c160 44 422 134 422 412 0 244-197 432-541 432" id="L"/><g id="g"><use transform="matrix(0.006469573400250941,0,0,0.006469573400250941,0,0)" xlink:href="#L"/><use transform="matrix(0.006469573400250941,0,0,0.006469573400250941,8.501019447929737,0)" xlink:href="#z"/><use transform="matrix(0.006469573400250941,0,0,0.006469573400250941,16.44565558343789,0)" xlink:href="#E"/><use transform="matrix(0.006469573400250941,0,0,0.006469573400250941,24.28030897114178,0)" xlink:href="#B"/><use transform="matrix(0.006469573400250941,0,0,0.006469573400250941,28.614923149309913,0)" xlink:href="#C"/><use transform="matrix(0.006469573400250941,0,0,0.006469573400250941,36.4495765370138,0)" xlink:href="#D"/><use transform="matrix(0.006469573400250941,0,0,0.006469573400250941,44.56242158092848,0)" xlink:href="#z"/><use transform="matrix(0.006469573400250941,0,0,0.006469573400250941,52.50705771643664,0)" xlink:href="#E"/><use transform="matrix(0.006469573400250941,0,0,0.006469573400250941,60.341711104140536,0)" xlink:href="#F"/><use transform="matrix(0.006469573400250941,0,0,0.006469573400250941,68.16989491844417,0)" xlink:href="#G"/></g><path d="M180 0v-1490h908v168H370v486h669v168H370v500h727V0H180" id="M"/><g id="h"><use transform="matrix(0.006469573400250941,0,0,0.006469573400250941,0,0)" xlink:href="#M"/><use transform="matrix(0.006469573400250941,0,0,0.006469573400250941,7.9640448557089085,0)" xlink:href="#I"/><use transform="matrix(0.006469573400250941,0,0,0.006469573400250941,16.08982904642409,0)" xlink:href="#A"/><use transform="matrix(0.006469573400250941,0,0,0.006469573400250941,20.857904642409032,0)" xlink:href="#J"/><use transform="matrix(0.006469573400250941,0,0,0.006469573400250941,28.582575282308657,0)" xlink:href="#K"/><use transform="matrix(0.006469573400250941,0,0,0.006469573400250941,35.57618412797992,0)" xlink:href="#K"/></g><path d="M458 0L52-1490h194c108 439 233 855 324 1313 92-459 221-873 331-1313h216c110 438 234 854 330 1307 92-455 216-869 323-1307h196L1558 0h-221l-256-944c-26-95-50-200-73-331-22 122-44 223-73 331L680 0H458" id="N"/><g id="i"><use transform="matrix(0.007005542300427479,0,0,0.007005542300427479,0,0)" xlink:href="#N"/><use transform="matrix(0.007005542300427479,0,0,0.007005542300427479,13.408607963018197,0)" xlink:href="#J"/><use transform="matrix(0.007005542300427479,0,0,0.007005542300427479,21.773225469728608,0)" xlink:href="#K"/><use transform="matrix(0.007005542300427479,0,0,0.007005542300427479,29.34621669649071,0)" xlink:href="#B"/><use transform="matrix(0.007005542300427479,0,0,0.007005542300427479,34.039930037777125,0)" xlink:href="#D"/><use transform="matrix(0.007005542300427479,0,0,0.007005542300427479,42.82488008251318,0)" xlink:href="#z"/><use transform="matrix(0.007005542300427479,0,0,0.007005542300427479,51.42768602743813,0)" xlink:href="#E"/><use transform="matrix(0.007005542300427479,0,0,0.007005542300427479,59.9113977532558,0)" xlink:href="#F"/><use transform="matrix(0.007005542300427479,0,0,0.007005542300427479,68.38810393677305,0)" xlink:href="#G"/></g><g id="j"><use transform="matrix(0.007005542300427479,0,0,0.007005542300427479,0,0)" xlink:href="#H"/><use transform="matrix(0.007005542300427479,0,0,0.007005542300427479,3.8530482652351132,0)" xlink:href="#F"/><use transform="matrix(0.007005542300427479,0,0,0.007005542300427479,12.329754448752363,0)" xlink:href="#I"/><use transform="matrix(0.007005542300427479,0,0,0.007005542300427479,21.128715578089274,0)" xlink:href="#A"/><use transform="matrix(0.007005542300427479,0,0,0.007005542300427479,26.291800253504327,0)" xlink:href="#J"/><use transform="matrix(0.007005542300427479,0,0,0.007005542300427479,34.65641776021474,0)" xlink:href="#K"/><use transform="matrix(0.007005542300427479,0,0,0.007005542300427479,42.229408986976836,0)" xlink:href="#K"/></g><path d="M471 26C259 26 90-98 90-318c0-256 228-303 435-329 202-27 287-16 287-108 0-139-79-219-234-219-161 0-248 86-283 164l-173-57c86-203 278-265 451-265 150 0 419 46 419 395V0H815v-152h-12C765-73 660 26 471 26zm31-159c199 0 310-134 310-271v-155c-30 35-226 55-295 64-131 17-246 59-246 186 0 116 97 176 231 176" id="O"/><g id="k"><use transform="matrix(0.007005542300427479,0,0,0.007005542300427479,0,0)" xlink:href="#M"/><use transform="matrix(0.007005542300427479,0,0,0.007005542300427479,8.623822571826226,0)" xlink:href="#O"/><use transform="matrix(0.007005542300427479,0,0,0.007005542300427479,16.680196217317825,0)" xlink:href="#K"/><use transform="matrix(0.007005542300427479,0,0,0.007005542300427479,24.25318744407993,0)" xlink:href="#B"/><use transform="matrix(0.007005542300427479,0,0,0.007005542300427479,28.946900785366342,0)" xlink:href="#D"/><use transform="matrix(0.007005542300427479,0,0,0.007005542300427479,37.7318508301024,0)" xlink:href="#z"/><use transform="matrix(0.007005542300427479,0,0,0.007005542300427479,46.33465677502735,0)" xlink:href="#E"/><use transform="matrix(0.007005542300427479,0,0,0.007005542300427479,54.81836850084502,0)" xlink:href="#F"/><use transform="matrix(0.007005542300427479,0,0,0.007005542300427479,63.29507468436227,0)" xlink:href="#G"/></g><g id="l"><use transform="matrix(0.007005542300427479,0,0,0.007005542300427479,0,0)" xlink:href="#M"/><use transform="matrix(0.007005542300427479,0,0,0.007005542300427479,8.623822571826226,0)" xlink:href="#I"/><use transform="matrix(0.007005542300427479,0,0,0.007005542300427479,17.42278370116314,0)" xlink:href="#A"/><use transform="matrix(0.007005542300427479,0,0,0.007005542300427479,22.58586837657819,0)" xlink:href="#J"/><use transform="matrix(0.007005542300427479,0,0,0.007005542300427479,30.950485883288604,0)" xlink:href="#K"/><use transform="matrix(0.007005542300427479,0,0,0.007005542300427479,38.523477110050706,0)" xlink:href="#K"/></g><g id="m"><use transform="matrix(0.009906340057636888,0,0,0.009906340057636888,0,0)" xlink:href="#H"/><use transform="matrix(0.009906340057636888,0,0,0.009906340057636888,5.448487031700289,0)" xlink:href="#F"/><use transform="matrix(0.009906340057636888,0,0,0.009906340057636888,17.43515850144092,0)" xlink:href="#B"/><use transform="matrix(0.009906340057636888,0,0,0.009906340057636888,23.874279538904894,0)" xlink:href="#J"/><use transform="matrix(0.009906340057636888,0,0,0.009906340057636888,35.70244956772334,0)" xlink:href="#A"/><use transform="matrix(0.009906340057636888,0,0,0.009906340057636888,43.65724063400575,0)" xlink:href="#F"/><use transform="matrix(0.009906340057636888,0,0,0.009906340057636888,55.6439121037464,0)" xlink:href="#J"/><use transform="matrix(0.009906340057636888,0,0,0.009906340057636888,67.47208213256484,0)" xlink:href="#B"/></g><path d="M784 20c-382 0-662-292-662-764 0-473 280-766 662-766s660 293 660 766c0 472-278 764-660 764zm0-176c266 0 475-207 475-588 0-383-209-590-475-590-268 0-477 208-477 590 0 380 209 588 477 588" id="P"/><path d="M158 0v-1118h180V0H158zm91-1301c-68 0-125-53-125-119s57-119 125-119c69 0 126 53 126 119s-57 119-126 119" id="Q"/><path d="M126 0v-134l627-806v-11H146v-167h839v143L376-178v11h629V0H126" id="R"/><g id="n"><use transform="matrix(0.009906340057636888,0,0,0.009906340057636888,0,0)" xlink:href="#P"/><use transform="matrix(0.009906340057636888,0,0,0.009906340057636888,15.513328530259367,0)" xlink:href="#A"/><use transform="matrix(0.009906340057636888,0,0,0.009906340057636888,22.814301152737748,0)" xlink:href="#I"/><use transform="matrix(0.009906340057636888,0,0,0.009906340057636888,35.25666426512968,0)" xlink:href="#O"/><use transform="matrix(0.009906340057636888,0,0,0.009906340057636888,46.6489553314121,0)" xlink:href="#F"/><use transform="matrix(0.009906340057636888,0,0,0.009906340057636888,58.63562680115273,0)" xlink:href="#Q"/><use transform="matrix(0.009906340057636888,0,0,0.009906340057636888,63.54917146974063,0)" xlink:href="#R"/><use transform="matrix(0.009906340057636888,0,0,0.009906340057636888,74.75324207492795,0)" xlink:href="#O"/><use transform="matrix(0.009906340057636888,0,0,0.009906340057636888,86.14553314121036,0)" xlink:href="#B"/><use transform="matrix(0.009906340057636888,0,0,0.009906340057636888,92.78278097982708,0)" xlink:href="#Q"/><use transform="matrix(0.009906340057636888,0,0,0.009906340057636888,97.69632564841497,0)" xlink:href="#z"/><use transform="matrix(0.009906340057636888,0,0,0.009906340057636888,109.86131123919307,0)" xlink:href="#F"/></g><path d="M180 0v-1490h510c348 0 508 194 508 460 0 198-88 351-276 417L1256 0h-220L726-579c-117 2-238 0-356 1V0H180zm190-747h312c235 0 327-108 327-283 0-177-92-293-329-293H370v576" id="S"/><path d="M158 0v-1118h175l1 205c55-151 181-225 313-225 147 0 245 90 285 228 53-141 190-228 352-228 194 0 352 125 352 384V0h-181v-749c0-161-105-225-225-225-151 0-243 103-243 244V0H807v-767c0-124-93-207-219-207-131 0-250 92-250 270V0H158" id="T"/><g id="o"><use transform="matrix(0.009906340057636888,0,0,0.009906340057636888,0,0)" xlink:href="#S"/><use transform="matrix(0.009906340057636888,0,0,0.009906340057636888,13.056556195965419,0)" xlink:href="#E"/><use transform="matrix(0.009906340057636888,0,0,0.009906340057636888,25.053134005763688,0)" xlink:href="#F"/><use transform="matrix(0.009906340057636888,0,0,0.009906340057636888,37.03980547550432,0)" xlink:href="#B"/><use transform="matrix(0.009906340057636888,0,0,0.009906340057636888,43.67705331412103,0)" xlink:href="#Q"/><use transform="matrix(0.009906340057636888,0,0,0.009906340057636888,48.590597982708935,0)" xlink:href="#T"/><use transform="matrix(0.009906340057636888,0,0,0.009906340057636888,66.3625720461095,0)" xlink:href="#J"/></g><path d="M481 0L54-1118h197c107 314 236 620 325 951 87-331 217-637 324-951h197L670 0H481" id="U"/><path d="M409 0L70-1118h191c89 329 165 560 243 925 75-353 154-601 240-925h192c85 325 161 564 235 922 77-354 157-598 244-922h191L1267 0h-179c-86-307-176-590-250-913C763-588 675-308 588 0H409" id="V"/><g id="p"><use transform="matrix(0.009906340057636888,0,0,0.009906340057636888,0,0)" xlink:href="#U"/><use transform="matrix(0.009906340057636888,0,0,0.009906340057636888,11.402197406340058,0)" xlink:href="#Q"/><use transform="matrix(0.009906340057636888,0,0,0.009906340057636888,16.315742074927954,0)" xlink:href="#J"/><use transform="matrix(0.009906340057636888,0,0,0.009906340057636888,27.777377521613833,0)" xlink:href="#V"/></g><path d="M678-1118v154H420V0H240v-964H20v-154h220v-149c0-194 155-293 318-293 85 0 141 18 168 30l-50 154c-19-6-47-17-97-17-111 0-159 58-159 166v109h258" id="W"/><g id="q"><use transform="matrix(0.009906340057636888,0,0,0.009906340057636888,0,0)" xlink:href="#z"/><use transform="matrix(0.009906340057636888,0,0,0.009906340057636888,12.164985590778096,0)" xlink:href="#W"/></g><use transform="matrix(0.009906340057636888,0,0,0.009906340057636888,0,0)" xlink:href="#O" id="r"/><path d="M180 0v-1490h510c348 0 508 209 508 474 0 266-160 477-507 477H370V0H180zm190-706h312c236 0 327-133 327-310 0-176-91-307-329-307H370v617" id="X"/><path d="M157-1118h181V80c1 225-123 350-364 338V252c126 9 184-48 183-172v-1198zm91-183c-68 0-125-53-125-119s57-119 125-119c69 0 126 53 126 119s-57 119-126 119" id="Y"/><path d="M613 24c-304 0-509-231-509-576 0-350 205-580 509-580 216 0 392 114 453 309l-173 49c-33-115-133-197-280-197-223 0-326 196-326 419 0 220 103 415 326 415 150 0 252-85 285-206l172 49C1010-95 832 24 613 24" id="Z"/><g id="s"><use transform="matrix(0.009906340057636888,0,0,0.009906340057636888,0,0)" xlink:href="#X"/><use transform="matrix(0.009906340057636888,0,0,0.009906340057636888,12.957492795389049,0)" xlink:href="#A"/><use transform="matrix(0.009906340057636888,0,0,0.009906340057636888,20.258465417867434,0)" xlink:href="#z"/><use transform="matrix(0.009906340057636888,0,0,0.009906340057636888,32.42345100864553,0)" xlink:href="#Y"/><use transform="matrix(0.009906340057636888,0,0,0.009906340057636888,37.336995677233425,0)" xlink:href="#J"/><use transform="matrix(0.009906340057636888,0,0,0.009906340057636888,49.16516570605187,0)" xlink:href="#Z"/><use transform="matrix(0.009906340057636888,0,0,0.009906340057636888,60.75558357348704,0)" xlink:href="#B"/></g></defs></g></svg>