<svg xmlns="http://www.w3.org/2000/svg" xmlns:xlink="http://www.w3.org/1999/xlink" xmlns:lucid="lucid" width="831" height="425"><g transform="translate(-241 2540)" lucid:page-tab-id="0_0"><path d="M0-3500h2500v5000H0z" fill="#fff"/><path d="M260-2514.56a6 6 0 0 1 6-6h782a6 6 0 0 1 6 6V-2146a6 6 0 0 1-6 6H266a6 6 0 0 1-6-6z" stroke="#fff" stroke-width="2" fill="#f2f3f5"/><path d="M270-2504.4a6 6 0 0 1 6-6h762.27a6 6 0 0 1 6 6v347.66a6 6 0 0 1-6 6H276a6 6 0 0 1-6-6z" stroke="#fff" stroke-width="2" fill="#fff"/><path d="M300-2474a6 6 0 0 1 6-6h702.68a6 6 0 0 1 6 6v268a6 6 0 0 1-6 6H306a6 6 0 0 1-6-6z" stroke="#9391ff" stroke-width="2" fill="#fff"/><path d="M325.97-2414a6 6 0 0 1 6-6h136.7a6 6 0 0 1 6 6v179.65a6 6 0 0 1-6 6h-136.7a6 6 0 0 1-6-6z" stroke="#9391ff" stroke-width="2" fill="#f2f2ff"/><path d="M353.68-2319a6 6 0 0 1 6-6h86.23a6 6 0 0 1 6 6v24.58a6 6 0 0 1-6 6H359.7a6 6 0 0 1-6-6z" stroke="#9391ff" stroke-width="2" fill="#fff"/><use xlink:href="#a" transform="matrix(1,0,0,1,358.6766187247484,-2320) translate(21.631291133867435 17.489092958123656)"/><path d="M351.68-2320.87a6 6 0 0 1 6-6h86.23a6 6 0 0 1 6 6v24.6a6 6 0 0 1-6 6H357.7a6 6 0 0 1-6-6z" stroke="#9391ff" stroke-width="2" fill="#fff"/><use xlink:href="#a" transform="matrix(1,0,0,1,356.6766187247484,-2321.8671875) translate(21.631291133867435 17.489092958123656)"/><path d="M509.67-2194a6 6 0 0 1 6-6h321.36a6 6 0 0 1 6 6v48a6 6 0 0 1-6 6H515.67a6 6 0 0 1-6-6z" fill="#fff" fill-opacity="0"/><use xlink:href="#b" transform="matrix(1,0,0,1,514.6694791982093,-2195) translate(60.12174479166666 28.541666666666668)"/><use xlink:href="#c" transform="matrix(1,0,0,1,514.6694791982093,-2195) translate(110.056640625 28.541666666666668)"/><use xlink:href="#d" transform="matrix(1,0,0,1,514.6694791982093,-2195) translate(184.490234375 28.541666666666668)"/><path d="M354.68-2409a6 6 0 0 1 6-6h78.86a6 6 0 0 1 6 6v25.13a6 6 0 0 1-6 6h-78.86a6 6 0 0 1-6-6z" fill="#fff" fill-opacity="0"/><use xlink:href="#e" transform="matrix(1,0,0,1,359.67661872474827,-2410) translate(3.7682291666666643 18.166666666666668)"/><path d="M359.48-2384a6 6 0 0 1 6-6h78.86a6 6 0 0 1 6 6v25.13a6 6 0 0 1-6 6h-78.86a6 6 0 0 1-6-6z" fill="#fff" fill-opacity="0"/><use xlink:href="#f" transform="matrix(1,0,0,1,364.47857996962915,-2385) translate(0 12.646511301027873)"/><use xlink:href="#g" transform="matrix(1,0,0,1,364.47857996962915,-2385) translate(35.73714660282719 12.646511301027873)"/><use xlink:href="#h" transform="matrix(1,0,0,1,364.47857996962915,-2385) translate(0 26.24133004247794)"/><use xlink:href="#i" transform="matrix(1,0,0,1,364.47857996962915,-2385) translate(30.036978454172374 26.24133004247794)"/><path d="M349.8-2322.3a6 6 0 0 1 6-6H442a6 6 0 0 1 6 6v24.6a6 6 0 0 1-6 6H355.8a6 6 0 0 1-6-6z" stroke="#9391ff" stroke-width="2" fill="#fff"/><use xlink:href="#a" transform="matrix(1,0,0,1,354.79020283242136,-2323.292105245104) translate(21.631291133867435 17.489092958123656)"/><path d="M353.68-2270.7a6 6 0 0 1 6-6h86.23a6 6 0 0 1 6 6v24.58a6 6 0 0 1-6 6H359.7a6 6 0 0 1-6-6z" stroke="#9391ff" stroke-width="2" fill="#fff"/><use xlink:href="#a" transform="matrix(1,0,0,1,358.6766187247486,-2271.707894754896) translate(21.631291133867435 17.489092958123656)"/><path d="M351.68-2272.57a6 6 0 0 1 6-6h86.23a6 6 0 0 1 6 6v24.58a6 6 0 0 1-6 6H357.7a6 6 0 0 1-6-6z" stroke="#9391ff" stroke-width="2" fill="#fff"/><use xlink:href="#a" transform="matrix(1,0,0,1,356.6766187247486,-2273.575082254896) translate(21.631291133867435 17.489092958123656)"/><path d="M349.8-2274a6 6 0 0 1 6-6H442a6 6 0 0 1 6 6v24.58a6 6 0 0 1-6 6H355.8a6 6 0 0 1-6-6z" stroke="#9391ff" stroke-width="2" fill="#fff"/><use xlink:href="#j" transform="matrix(1,0,0,1,354.7902028324216,-2275) translate(14.785125231065637 17.489092958123656)"/><path d="M343.33-2384.8l117.7-.2M343.34-2384.8h-.5M461-2385h.52" stroke="#3a414a" fill="none"/><path d="M494.68-2414a6 6 0 0 1 6-6h136.7a6 6 0 0 1 6 6v179.65a6 6 0 0 1-6 6H500.7a6 6 0 0 1-6-6z" stroke="#9391ff" stroke-width="2" fill="#f2f2ff"/><path d="M522.4-2319a6 6 0 0 1 6-6h86.22a6 6 0 0 1 6 6v24.58a6 6 0 0 1-6 6h-86.24a6 6 0 0 1-6-6z" stroke="#9391ff" stroke-width="2" fill="#fff"/><use xlink:href="#a" transform="matrix(1,0,0,1,527.3849654974317,-2320) translate(21.631291133867435 17.489092958123656)"/><path d="M520.4-2320.87a6 6 0 0 1 6-6h86.22a6 6 0 0 1 6 6v24.6a6 6 0 0 1-6 6h-86.24a6 6 0 0 1-6-6z" stroke="#9391ff" stroke-width="2" fill="#fff"/><use xlink:href="#a" transform="matrix(1,0,0,1,525.3849654974317,-2321.8671875) translate(21.631291133867435 17.489092958123656)"/><path d="M523.4-2409a6 6 0 0 1 6-6h78.84a6 6 0 0 1 6 6v25.13a6 6 0 0 1-6 6h-78.86a6 6 0 0 1-6-6z" fill="#fff" fill-opacity="0"/><use xlink:href="#e" transform="matrix(1,0,0,1,528.3849654974316,-2410) translate(3.7682291666666643 18.166666666666668)"/><path d="M528.2-2384a6 6 0 0 1 6-6h78.84a6 6 0 0 1 6 6v25.13a6 6 0 0 1-6 6H534.2a6 6 0 0 1-6-6z" fill="#fff" fill-opacity="0"/><use xlink:href="#f" transform="matrix(1,0,0,1,533.1869267423125,-2385) translate(0 12.646511301027873)"/><use xlink:href="#k" transform="matrix(1,0,0,1,533.1869267423125,-2385) translate(35.73714660282719 12.646511301027873)"/><use xlink:href="#h" transform="matrix(1,0,0,1,533.1869267423125,-2385) translate(0 26.24133004247794)"/><use xlink:href="#l" transform="matrix(1,0,0,1,533.1869267423125,-2385) translate(30.036978454172374 26.24133004247794)"/><path d="M518.5-2322.3a6 6 0 0 1 6-6h86.23a6 6 0 0 1 6 6v24.6a6 6 0 0 1-6 6H524.5a6 6 0 0 1-6-6z" stroke="#9391ff" stroke-width="2" fill="#fff"/><use xlink:href="#a" transform="matrix(1,0,0,1,523.4985496051047,-2323.292105245104) translate(21.631291133867435 17.489092958123656)"/><path d="M522.4-2270.7a6 6 0 0 1 6-6h86.22a6 6 0 0 1 6 6v24.58a6 6 0 0 1-6 6h-86.24a6 6 0 0 1-6-6z" stroke="#9391ff" stroke-width="2" fill="#fff"/><use xlink:href="#a" transform="matrix(1,0,0,1,527.384965497432,-2271.707894754896) translate(21.631291133867435 17.489092958123656)"/><path d="M520.4-2272.57a6 6 0 0 1 6-6h86.22a6 6 0 0 1 6 6v24.58a6 6 0 0 1-6 6h-86.24a6 6 0 0 1-6-6z" stroke="#9391ff" stroke-width="2" fill="#fff"/><use xlink:href="#a" transform="matrix(1,0,0,1,525.384965497432,-2273.575082254896) translate(21.631291133867435 17.489092958123656)"/><path d="M518.5-2274a6 6 0 0 1 6-6h86.23a6 6 0 0 1 6 6v24.58a6 6 0 0 1-6 6H524.5a6 6 0 0 1-6-6z" stroke="#9391ff" stroke-width="2" fill="#fff"/><use xlink:href="#j" transform="matrix(1,0,0,1,523.4985496051049,-2275) translate(14.785125231065637 17.489092958123656)"/><path d="M512.04-2384.8l117.7-.2M512.05-2384.8h-.5M629.72-2385h.5" stroke="#3a414a" fill="none"/><path d="M662.64-2414a6 6 0 0 1 6-6h136.7a6 6 0 0 1 6 6v179.65a6 6 0 0 1-6 6h-136.7a6 6 0 0 1-6-6z" stroke="#9391ff" stroke-width="2" fill="#f2f2ff"/><path d="M690.35-2319a6 6 0 0 1 6-6h86.23a6 6 0 0 1 6 6v24.58a6 6 0 0 1-6 6h-86.24a6 6 0 0 1-6-6z" stroke="#9391ff" stroke-width="2" fill="#fff"/><use xlink:href="#a" transform="matrix(1,0,0,1,695.3446051930389,-2320) translate(21.631291133867435 17.489092958123656)"/><path d="M688.35-2320.87a6 6 0 0 1 6-6h86.23a6 6 0 0 1 6 6v24.6a6 6 0 0 1-6 6h-86.24a6 6 0 0 1-6-6z" stroke="#9391ff" stroke-width="2" fill="#fff"/><use xlink:href="#a" transform="matrix(1,0,0,1,693.3446051930389,-2321.8671875) translate(21.631291133867435 17.489092958123656)"/><path d="M691.35-2409a6 6 0 0 1 6-6h78.85a6 6 0 0 1 6 6v25.13a6 6 0 0 1-6 6h-78.86a6 6 0 0 1-6-6z" fill="#fff" fill-opacity="0"/><use xlink:href="#e" transform="matrix(1,0,0,1,696.3446051930388,-2410) translate(3.7682291666666643 18.166666666666668)"/><path d="M687.15-2384a6 6 0 0 1 6-6h97.53a6 6 0 0 1 6 6v25.13a6 6 0 0 1-6 6h-97.53a6 6 0 0 1-6-6z" fill="#fff" fill-opacity="0"/><use xlink:href="#f" transform="matrix(1,0,0,1,692.1465664379197,-2385) translate(0 12.646511301027873)"/><use xlink:href="#m" transform="matrix(1,0,0,1,692.1465664379197,-2385) translate(35.73714660282719 12.646511301027873)"/><use xlink:href="#h" transform="matrix(1,0,0,1,692.1465664379197,-2385) translate(0 26.24133004247794)"/><use xlink:href="#n" transform="matrix(1,0,0,1,692.1465664379197,-2385) translate(30.036978454172374 26.24133004247794)"/><use xlink:href="#o" transform="matrix(1,0,0,1,692.1465664379197,-2385) translate(71.96805175558598 26.24133004247794)"/><path d="M686.46-2322.3a6 6 0 0 1 6-6h86.23a6 6 0 0 1 6 6v24.6a6 6 0 0 1-6 6h-86.24a6 6 0 0 1-6-6z" stroke="#9391ff" stroke-width="2" fill="#fff"/><use xlink:href="#a" transform="matrix(1,0,0,1,691.4581893007119,-2323.292105245104) translate(21.631291133867435 17.489092958123656)"/><path d="M690.35-2270.7a6 6 0 0 1 6-6h86.23a6 6 0 0 1 6 6v24.58a6 6 0 0 1-6 6h-86.24a6 6 0 0 1-6-6z" stroke="#9391ff" stroke-width="2" fill="#fff"/><use xlink:href="#a" transform="matrix(1,0,0,1,695.3446051930391,-2271.707894754896) translate(21.631291133867435 17.489092958123656)"/><path d="M688.35-2272.57a6 6 0 0 1 6-6h86.23a6 6 0 0 1 6 6v24.58a6 6 0 0 1-6 6h-86.24a6 6 0 0 1-6-6z" stroke="#9391ff" stroke-width="2" fill="#fff"/><use xlink:href="#a" transform="matrix(1,0,0,1,693.3446051930391,-2273.575082254896) translate(21.631291133867435 17.489092958123656)"/><path d="M686.46-2274a6 6 0 0 1 6-6h86.23a6 6 0 0 1 6 6v24.58a6 6 0 0 1-6 6h-86.24a6 6 0 0 1-6-6z" stroke="#9391ff" stroke-width="2" fill="#fff"/><use xlink:href="#j" transform="matrix(1,0,0,1,691.4581893007121,-2275) translate(14.785125231065637 17.489092958123656)"/><path d="M680-2384.8l117.7-.2M680-2384.8h-.5M797.68-2385h.5" stroke="#3a414a" fill="none"/><path d="M836.12-2414a6 6 0 0 1 6-6h136.7a6 6 0 0 1 6 6v179.65a6 6 0 0 1-6 6h-136.7a6 6 0 0 1-6-6z" stroke="#9391ff" stroke-width="2" fill="#f2f2ff"/><path d="M863.83-2319a6 6 0 0 1 6-6h86.23a6 6 0 0 1 6 6v24.58a6 6 0 0 1-6 6h-86.23a6 6 0 0 1-6-6z" stroke="#9391ff" stroke-width="2" fill="#fff"/><use xlink:href="#a" transform="matrix(1,0,0,1,868.8247018107018,-2320) translate(21.631291133867435 17.489092958123656)"/><path d="M861.83-2320.87a6 6 0 0 1 6-6h86.23a6 6 0 0 1 6 6v24.6a6 6 0 0 1-6 6h-86.23a6 6 0 0 1-6-6z" stroke="#9391ff" stroke-width="2" fill="#fff"/><use xlink:href="#a" transform="matrix(1,0,0,1,866.8247018107018,-2321.8671875) translate(21.631291133867435 17.489092958123656)"/><path d="M864.83-2409a6 6 0 0 1 6-6h78.85a6 6 0 0 1 6 6v25.13a6 6 0 0 1-6 6h-78.85a6 6 0 0 1-6-6z" fill="#fff" fill-opacity="0"/><use xlink:href="#e" transform="matrix(1,0,0,1,869.8247018107016,-2410) translate(3.7682291666666643 18.166666666666668)"/><path d="M853.63-2392a6 6 0 0 1 6-6h116.2a6 6 0 0 1 6 6v42a6 6 0 0 1-6 6h-116.2a6 6 0 0 1-6-6z" fill="#fff" fill-opacity="0"/><use xlink:href="#p" transform="matrix(1,0,0,1,858.6266630555826,-2393) translate(0 20.240968803780966)"/><use xlink:href="#q" transform="matrix(1,0,0,1,858.6266630555826,-2393) translate(34.42015441587479 20.240968803780966)"/><use xlink:href="#r" transform="matrix(1,0,0,1,858.6266630555826,-2393) translate(0 33.334788675217524)"/><use xlink:href="#s" transform="matrix(1,0,0,1,858.6266630555826,-2393) translate(28.930049958077138 33.334788675217524)"/><use xlink:href="#t" transform="matrix(1,0,0,1,858.6266630555826,-2393) translate(86.38856379262157 33.334788675217524)"/><path d="M859.94-2322.3a6 6 0 0 1 6-6h86.23a6 6 0 0 1 6 6v24.6a6 6 0 0 1-6 6h-86.23a6 6 0 0 1-6-6z" stroke="#9391ff" stroke-width="2" fill="#fff"/><g><use xlink:href="#a" transform="matrix(1,0,0,1,864.9382859183747,-2323.292105245104) translate(21.631291133867435 17.489092958123656)"/></g><path d="M863.83-2270.7a6 6 0 0 1 6-6h86.23a6 6 0 0 1 6 6v24.58a6 6 0 0 1-6 6h-86.23a6 6 0 0 1-6-6z" stroke="#9391ff" stroke-width="2" fill="#fff"/><g><use xlink:href="#a" transform="matrix(1,0,0,1,868.824701810702,-2271.707894754896) translate(21.631291133867435 17.489092958123656)"/></g><path d="M861.83-2272.57a6 6 0 0 1 6-6h86.23a6 6 0 0 1 6 6v24.58a6 6 0 0 1-6 6h-86.23a6 6 0 0 1-6-6z" stroke="#9391ff" stroke-width="2" fill="#fff"/><g><use xlink:href="#a" transform="matrix(1,0,0,1,866.824701810702,-2273.575082254896) translate(21.631291133867435 17.489092958123656)"/></g><path d="M859.94-2274a6 6 0 0 1 6-6h86.23a6 6 0 0 1 6 6v24.58a6 6 0 0 1-6 6h-86.23a6 6 0 0 1-6-6z" stroke="#9391ff" stroke-width="2" fill="#fff"/><g><use xlink:href="#j" transform="matrix(1,0,0,1,864.938285918375,-2275) translate(14.785125231065637 17.489092958123656)"/></g><path d="M853.48-2384.8l117.7-.2M853.5-2384.8h-.52M971.16-2385h.5" stroke="#3a414a" fill="none"/><path d="M604.93-2470a6 6 0 0 1 6-6h78.86a6 6 0 0 1 6 6v25.13a6 6 0 0 1-6 6h-78.87a6 6 0 0 1-6-6z" fill="#fff" fill-opacity="0"/><g><use xlink:href="#u" transform="matrix(1,0,0,1,609.9305588810927,-2471) translate(18.354817708333332 18.166666666666668)"/></g><defs><path d="M180 0v-1490h908v168H370v486h669v168H370v500h727V0H180" id="v"/><path d="M338-670V0H158v-1118h173l1 207c72-158 192-221 342-221 226 0 378 139 378 422V0H872v-695c0-172-96-275-252-275-161 0-282 109-282 300" id="w"/><path d="M577 24c-279 0-473-224-473-580 0-354 195-576 474-576 218 0 287 134 324 193h14v-551h180V0H922v-173h-20C865-111 790 24 577 24zm27-161c203 0 314-172 314-421 0-247-108-413-314-413-212 0-317 181-317 413 0 235 108 421 317 421" id="x"/><path d="M158 418v-1536h174v179h20c37-59 106-193 324-193 279 0 474 222 474 576 0 356-194 580-473 580-213 0-288-135-325-197h-14v591H158zm492-555c209 0 317-186 317-421 0-232-105-413-317-413-206 0-314 166-314 413 0 249 111 421 314 421" id="y"/><path d="M613 24c-304 0-509-231-509-576 0-350 205-580 509-580 305 0 511 230 511 580 0 345-206 576-511 576zm0-161c226 0 329-195 329-415 0-222-103-419-329-419-223 0-326 196-326 419 0 220 103 415 326 415" id="z"/><path d="M158 0v-1118h180V0H158zm91-1301c-68 0-125-53-125-119s57-119 125-119c69 0 126 53 126 119s-57 119-126 119" id="A"/><path d="M598-1118v154H368v674c0 100 37 144 132 144 23 0 62-6 92-12L629-6c-37 13-88 20-134 20-193 0-307-107-307-290v-688H20v-154h168v-266h180v266h230" id="B"/><g id="a"><use transform="matrix(0.005350657212037359,0,0,0.005350657212037359,0,0)" xlink:href="#v"/><use transform="matrix(0.005350657212037359,0,0,0.005350657212037359,6.586659028017989,0)" xlink:href="#w"/><use transform="matrix(0.005350657212037359,0,0,0.005350657212037359,13.060954254583192,0)" xlink:href="#x"/><use transform="matrix(0.005350657212037359,0,0,0.005350657212037359,19.77067839847804,0)" xlink:href="#y"/><use transform="matrix(0.005350657212037359,0,0,0.005350657212037359,26.48040254237289,0)" xlink:href="#z"/><use transform="matrix(0.005350657212037359,0,0,0.005350657212037359,33.05100959875477,0)" xlink:href="#A"/><use transform="matrix(0.005350657212037359,0,0,0.005350657212037359,35.7049355759253,0)" xlink:href="#w"/><use transform="matrix(0.005350657212037359,0,0,0.005350657212037359,42.179230802490494,0)" xlink:href="#B"/></g><path d="M783 20c-382 0-661-292-661-764 0-473 279-766 661-766 302 0 548 182 601 489h-190c-42-204-217-313-411-313-268 0-476 208-476 590 0 381 209 588 476 588 195 0 369-110 411-313h190c-52 303-296 489-601 489" id="C"/><path d="M338-670V0H158v-1490h180v566c73-149 190-208 336-208 226 0 379 139 379 422V0H872v-695c0-172-96-275-252-275-161 0-282 109-282 300" id="D"/><path d="M158 0v-1118h174v172h12c41-113 157-188 290-188 26 0 70 2 91 3v181c-11-2-60-10-108-10-161 0-279 109-279 260V0H158" id="E"/><path d="M628 24c-324 0-524-230-524-574 0-343 198-582 503-582 237 0 487 146 487 559v75H286c9 234 145 362 343 362 132 0 231-58 273-172l174 48C1024-91 857 24 628 24zM287-650h624c-17-190-120-322-304-322-192 0-309 151-320 322" id="F"/><g id="b"><use transform="matrix(0.006510416666666667,0,0,0.006510416666666667,0,0)" xlink:href="#C"/><use transform="matrix(0.006510416666666667,0,0,0.006510416666666667,9.739583333333334,0)" xlink:href="#D"/><use transform="matrix(0.006510416666666667,0,0,0.006510416666666667,17.623697916666668,0)" xlink:href="#z"/><use transform="matrix(0.006510416666666667,0,0,0.006510416666666667,25.618489583333336,0)" xlink:href="#E"/><use transform="matrix(0.006510416666666667,0,0,0.006510416666666667,30.416666666666668,0)" xlink:href="#F"/><use transform="matrix(0.006510416666666667,0,0,0.006510416666666667,38.19010416666667,0)" xlink:href="#z"/></g><path d="M52 0l541-1490h220L1361 0h-200l-149-416H398L254 0H52zm404-582h497c-103-290-145-390-251-756-108 377-145 460-246 756" id="G"/><path d="M338-1490V0H158v-1490h180" id="H"/><path d="M613 24c-304 0-509-231-509-576 0-350 205-580 509-580 216 0 392 114 453 309l-173 49c-33-115-133-197-280-197-223 0-326 196-326 419 0 220 103 415 326 415 150 0 252-85 285-206l172 49C1010-95 832 24 613 24" id="I"/><path d="M471 26C259 26 90-98 90-318c0-256 228-303 435-329 202-27 287-16 287-108 0-139-79-219-234-219-161 0-248 86-283 164l-173-57c86-203 278-265 451-265 150 0 419 46 419 395V0H815v-152h-12C765-73 660 26 471 26zm31-159c199 0 310-134 310-271v-155c-30 35-226 55-295 64-131 17-246 59-246 186 0 116 97 176 231 176" id="J"/><g id="c"><use transform="matrix(0.006510416666666667,0,0,0.006510416666666667,0,0)" xlink:href="#G"/><use transform="matrix(0.006510416666666667,0,0,0.006510416666666667,9.19921875,0)" xlink:href="#y"/><use transform="matrix(0.006510416666666667,0,0,0.006510416666666667,17.36328125,0)" xlink:href="#y"/><use transform="matrix(0.006510416666666667,0,0,0.006510416666666667,25.52734375,0)" xlink:href="#H"/><use transform="matrix(0.006510416666666667,0,0,0.006510416666666667,28.756510416666668,0)" xlink:href="#A"/><use transform="matrix(0.006510416666666667,0,0,0.006510416666666667,31.985677083333336,0)" xlink:href="#I"/><use transform="matrix(0.006510416666666667,0,0,0.006510416666666667,39.73307291666667,0)" xlink:href="#J"/><use transform="matrix(0.006510416666666667,0,0,0.006510416666666667,47.220052083333336,0)" xlink:href="#B"/><use transform="matrix(0.006510416666666667,0,0,0.006510416666666667,51.58203125,0)" xlink:href="#A"/><use transform="matrix(0.006510416666666667,0,0,0.006510416666666667,54.81119791666667,0)" xlink:href="#z"/><use transform="matrix(0.006510416666666667,0,0,0.006510416666666667,62.80598958333332,0)" xlink:href="#w"/></g><path d="M677 24c-213 0-288-135-325-197h-20V0H158v-1490h180v551h14c37-59 106-193 324-193 279 0 474 222 474 576 0 356-194 580-473 580zm-27-161c209 0 317-186 317-421 0-232-105-413-317-413-206 0-314 166-314 413 0 249 111 421 314 421" id="K"/><path d="M538 24C308 24 148-78 108-271l171-41c32 123 123 178 257 178 156 0 256-77 256-169 0-77-54-128-164-154l-186-44c-203-48-300-148-300-305 0-192 176-326 414-326 230 0 351 112 402 269l-163 42c-31-80-94-158-238-158-133 0-233 69-233 162 0 83 57 129 188 160l169 40c203 48 298 149 298 302 0 196-179 339-441 339" id="L"/><g id="d"><use transform="matrix(0.006510416666666667,0,0,0.006510416666666667,0,0)" xlink:href="#G"/><use transform="matrix(0.006510416666666667,0,0,0.006510416666666667,9.19921875,0)" xlink:href="#K"/><use transform="matrix(0.006510416666666667,0,0,0.006510416666666667,17.36328125,0)" xlink:href="#L"/><use transform="matrix(0.006510416666666667,0,0,0.006510416666666667,24.401041666666668,0)" xlink:href="#B"/><use transform="matrix(0.006510416666666667,0,0,0.006510416666666667,28.763020833333336,0)" xlink:href="#E"/><use transform="matrix(0.006510416666666667,0,0,0.006510416666666667,33.782552083333336,0)" xlink:href="#J"/><use transform="matrix(0.006510416666666667,0,0,0.006510416666666667,41.26953125,0)" xlink:href="#I"/><use transform="matrix(0.006510416666666667,0,0,0.006510416666666667,48.88671875,0)" xlink:href="#B"/><use transform="matrix(0.006510416666666667,0,0,0.006510416666666667,53.248697916666664,0)" xlink:href="#A"/><use transform="matrix(0.006510416666666667,0,0,0.006510416666666667,56.47786458333332,0)" xlink:href="#z"/><use transform="matrix(0.006510416666666667,0,0,0.006510416666666667,64.47265625,0)" xlink:href="#w"/><use transform="matrix(0.006510416666666667,0,0,0.006510416666666667,72.35026041666667,0)" xlink:href="#L"/></g><path d="M158 0v-1118h175l1 205c55-151 181-225 313-225 147 0 245 90 285 228 53-141 190-228 352-228 194 0 352 125 352 384V0h-181v-749c0-161-105-225-225-225-151 0-243 103-243 244V0H807v-767c0-124-93-207-219-207-131 0-250 92-250 270V0H158" id="M"/><g id="e"><use transform="matrix(0.006510416666666667,0,0,0.006510416666666667,0,0)" xlink:href="#C"/><use transform="matrix(0.006510416666666667,0,0,0.006510416666666667,9.739583333333334,0)" xlink:href="#z"/><use transform="matrix(0.006510416666666667,0,0,0.006510416666666667,17.734375,0)" xlink:href="#M"/><use transform="matrix(0.006510416666666667,0,0,0.006510416666666667,29.4140625,0)" xlink:href="#y"/><use transform="matrix(0.006510416666666667,0,0,0.006510416666666667,37.578125,0)" xlink:href="#z"/><use transform="matrix(0.006510416666666667,0,0,0.006510416666666667,45.572916666666664,0)" xlink:href="#w"/><use transform="matrix(0.006510416666666667,0,0,0.006510416666666667,53.45052083333332,0)" xlink:href="#F"/><use transform="matrix(0.006510416666666667,0,0,0.006510416666666667,61.22395833333332,0)" xlink:href="#w"/><use transform="matrix(0.006510416666666667,0,0,0.006510416666666667,69.1015625,0)" xlink:href="#B"/></g><path d="M295 13c-75 0-135-60-135-135s60-135 135-135 135 60 135 135S370 13 295 13zm0-809c-75 0-135-60-135-135s60-135 135-135 135 60 135 135-60 135-135 135" id="N"/><g id="f"><use transform="matrix(0.005486206110351118,0,0,0.005486206110351118,0,0)" xlink:href="#w"/><use transform="matrix(0.005486206110351118,0,0,0.005486206110351118,6.638309393524852,0)" xlink:href="#J"/><use transform="matrix(0.005486206110351118,0,0,0.005486206110351118,12.947446420428639,0)" xlink:href="#M"/><use transform="matrix(0.005486206110351118,0,0,0.005486206110351118,22.789700182398548,0)" xlink:href="#F"/><use transform="matrix(0.005486206110351118,0,0,0.005486206110351118,29.340230278157783,0)" xlink:href="#N"/></g><path d="M653-1490V0H466v-1314h-10L96-1047v-204l324-239h233" id="O"/><g id="g"><use transform="matrix(0.005486206110351118,0,0,0.005486206110351118,0,0)" xlink:href="#I"/><use transform="matrix(0.005486206110351118,0,0,0.005486206110351118,6.040312927496581,0)" xlink:href="#O"/></g><path d="M140 405l46-156c120 36 205 19 263-150l32-93L54-1118h197c107 313 237 620 324 950 87-331 219-637 326-950h196L606 167c-68 178-176 259-334 259-64 0-113-12-132-21" id="P"/><g id="h"><use transform="matrix(0.005486206110351118,0,0,0.005486206110351118,0,0)" xlink:href="#B"/><use transform="matrix(0.005486206110351118,0,0,0.005486206110351118,3.895206338349294,0)" xlink:href="#P"/><use transform="matrix(0.005486206110351118,0,0,0.005486206110351118,10.20982957136343,0)" xlink:href="#y"/><use transform="matrix(0.005486206110351118,0,0,0.005486206110351118,17.089532033743733,0)" xlink:href="#F"/><use transform="matrix(0.005486206110351118,0,0,0.005486206110351118,23.640062129502965,0)" xlink:href="#N"/></g><path d="M409 0L70-1118h191c89 329 165 560 243 925 75-353 154-601 240-925h192c85 325 161 564 235 922 77-354 157-598 244-922h191L1267 0h-179c-86-307-176-590-250-913C763-588 675-308 588 0H409" id="Q"/><g id="i"><use transform="matrix(0.005486206110351118,0,0,0.005486206110351118,0,0)" xlink:href="#Q"/><use transform="matrix(0.005486206110351118,0,0,0.005486206110351118,8.99189181486548,0)" xlink:href="#F"/><use transform="matrix(0.005486206110351118,0,0,0.005486206110351118,15.542421910624714,0)" xlink:href="#K"/><use transform="matrix(0.005486206110351118,0,0,0.005486206110351118,22.531848495212042,0)" xlink:href="#J"/><use transform="matrix(0.005486206110351118,0,0,0.005486206110351118,28.840985522115826,0)" xlink:href="#y"/><use transform="matrix(0.005486206110351118,0,0,0.005486206110351118,35.72068798449613,0)" xlink:href="#y"/></g><g id="j"><use transform="matrix(0.005350657212037359,0,0,0.005350657212037359,0,0)" xlink:href="#C"/><use transform="matrix(0.005350657212037359,0,0,0.005350657212037359,8.004583189207889,0)" xlink:href="#z"/><use transform="matrix(0.005350657212037359,0,0,0.005350657212037359,14.575190245589766,0)" xlink:href="#w"/><use transform="matrix(0.005350657212037359,0,0,0.005350657212037359,21.049485472154966,0)" xlink:href="#w"/><use transform="matrix(0.005350657212037359,0,0,0.005350657212037359,27.52378069872017,0)" xlink:href="#F"/><use transform="matrix(0.005350657212037359,0,0,0.005350657212037359,33.912465409892775,0)" xlink:href="#I"/><use transform="matrix(0.005350657212037359,0,0,0.005350657212037359,40.17273434797649,0)" xlink:href="#B"/><use transform="matrix(0.005350657212037359,0,0,0.005350657212037359,43.75767468004151,0)" xlink:href="#A"/><use transform="matrix(0.005350657212037359,0,0,0.005350657212037359,46.411600657212055,0)" xlink:href="#z"/><use transform="matrix(0.005350657212037359,0,0,0.005350657212037359,52.98220771359392,0)" xlink:href="#w"/></g><path d="M154 0v-137l495-537c165-179 249-281 249-418 0-156-121-253-280-253-170 0-278 110-278 278H158c0-264 200-443 465-443 266 0 455 183 455 416 0 161-73 288-336 568L416-179v12h687V0H154" id="R"/><g id="k"><use transform="matrix(0.005486206110351118,0,0,0.005486206110351118,0,0)" xlink:href="#I"/><use transform="matrix(0.005486206110351118,0,0,0.005486206110351118,6.418861149110807,0)" xlink:href="#R"/></g><path d="M481 0L54-1118h197c107 314 236 620 325 951 87-331 217-637 324-951h197L670 0H481" id="S"/><g id="l"><use transform="matrix(0.005486206110351118,0,0,0.005486206110351118,0,0)" xlink:href="#L"/><use transform="matrix(0.005486206110351118,0,0,0.005486206110351118,5.930588805289559,0)" xlink:href="#F"/><use transform="matrix(0.005486206110351118,0,0,0.005486206110351118,12.481118901048792,0)" xlink:href="#E"/><use transform="matrix(0.005486206110351118,0,0,0.005486206110351118,16.88654240766074,0)" xlink:href="#S"/><use transform="matrix(0.005486206110351118,0,0,0.005486206110351118,23.201165640674876,0)" xlink:href="#A"/><use transform="matrix(0.005486206110351118,0,0,0.005486206110351118,25.92232387140903,0)" xlink:href="#I"/><use transform="matrix(0.005486206110351118,0,0,0.005486206110351118,32.34118502051984,0)" xlink:href="#F"/></g><path d="M635 20c-292 0-500-160-510-396h192c11 142 145 229 315 229 187 0 323-105 323-260 0-161-125-274-346-274H488v-165h121c174 0 294-100 294-254 0-148-104-245-266-245-152 0-291 85-297 230H157c8-234 222-395 484-395 278 0 448 188 448 400 0 168-95 291-247 336v12c190 31 301 169 301 357 0 244-216 425-508 425" id="T"/><g id="m"><use transform="matrix(0.005486206110351118,0,0,0.005486206110351118,0,0)" xlink:href="#I"/><use transform="matrix(0.005486206110351118,0,0,0.005486206110351118,6.418861149110807,0)" xlink:href="#T"/></g><path d="M180 0v-1490h270l367 940c28 72 75 218 110 339 35-117 81-264 110-339l362-940h271V0h-187c2-448-5-837 7-1287-157 497-311 829-483 1287H842C666-458 514-784 354-1284c12 438 5 843 7 1284H180" id="U"/><path d="M537 14c-226 0-379-139-379-422v-710h180v695c0 172 97 275 253 275 160 0 281-109 281-300v-670h181V0H879v-209C806-46 684 14 537 14" id="V"/><g id="n"><use transform="matrix(0.005486206110351118,0,0,0.005486206110351118,0,0)" xlink:href="#U"/><use transform="matrix(0.005486206110351118,0,0,0.005486206110351118,10.149481304149568,0)" xlink:href="#J"/><use transform="matrix(0.005486206110351118,0,0,0.005486206110351118,16.458618331053355,0)" xlink:href="#w"/><use transform="matrix(0.005486206110351118,0,0,0.005486206110351118,23.096927724578208,0)" xlink:href="#V"/><use transform="matrix(0.005486206110351118,0,0,0.005486206110351118,29.74072332421341,0)" xlink:href="#J"/><use transform="matrix(0.005486206110351118,0,0,0.005486206110351118,36.049860351117196,0)" xlink:href="#H"/></g><path d="M98-1322v-168h1126v168H757V0H567v-1322H98" id="W"/><path d="M158 0v-1490h180v865h22l478-493h223L593-638 1096 0H865L456-523 338-412V0H158" id="X"/><g id="o"><use transform="matrix(0.005486206110351118,0,0,0.005486206110351118,0,0)" xlink:href="#W"/><use transform="matrix(0.005486206110351118,0,0,0.005486206110351118,6.4298335613315105,0)" xlink:href="#J"/><use transform="matrix(0.005486206110351118,0,0,0.005486206110351118,12.738970588235297,0)" xlink:href="#L"/><use transform="matrix(0.005486206110351118,0,0,0.005486206110351118,18.669559393524857,0)" xlink:href="#X"/></g><g id="p"><use transform="matrix(0.00528402738960313,0,0,0.00528402738960313,0,0)" xlink:href="#w"/><use transform="matrix(0.00528402738960313,0,0,0.00528402738960313,6.393673141419787,0)" xlink:href="#J"/><use transform="matrix(0.00528402738960313,0,0,0.00528402738960313,12.470304639463388,0)" xlink:href="#M"/><use transform="matrix(0.00528402738960313,0,0,0.00528402738960313,21.949849776411405,0)" xlink:href="#F"/><use transform="matrix(0.00528402738960313,0,0,0.00528402738960313,28.25897847959754,0)" xlink:href="#N"/></g><path d="M120-303v-155l652-1032h231v1020h202v167h-202V0H821v-303H120zm702-167v-782h-12L323-482v12h499" id="Y"/><g id="q"><use transform="matrix(0.00528402738960313,0,0,0.00528402738960313,0,0)" xlink:href="#I"/><use transform="matrix(0.00528402738960313,0,0,0.00528402738960313,6.182312045835663,0)" xlink:href="#Y"/></g><g id="r"><use transform="matrix(0.00528402738960313,0,0,0.00528402738960313,0,0)" xlink:href="#B"/><use transform="matrix(0.00528402738960313,0,0,0.00528402738960313,3.751659446618222,0)" xlink:href="#P"/><use transform="matrix(0.00528402738960313,0,0,0.00528402738960313,9.833574972051425,0)" xlink:href="#y"/><use transform="matrix(0.00528402738960313,0,0,0.00528402738960313,16.45974531861375,0)" xlink:href="#F"/><use transform="matrix(0.00528402738960313,0,0,0.00528402738960313,22.768874021799885,0)" xlink:href="#N"/></g><path d="M657 26c-323 0-524-166-541-416h195c15 169 171 246 346 246 202 0 356-106 356-265 5-203-294-238-475-293-239-73-380-191-380-389 0-252 224-419 512-419 294 0 499 171 508 396H992c-17-145-151-228-328-228-193 0-321 102-321 242 0 156 175 211 284 241l149 41c160 44 422 134 422 412 0 244-197 432-541 432" id="Z"/><g id="s"><use transform="matrix(0.00528402738960313,0,0,0.00528402738960313,0,0)" xlink:href="#Z"/><use transform="matrix(0.00528402738960313,0,0,0.00528402738960313,6.943211989938513,0)" xlink:href="#I"/><use transform="matrix(0.00528402738960313,0,0,0.00528402738960313,13.125524035774173,0)" xlink:href="#D"/><use transform="matrix(0.00528402738960313,0,0,0.00528402738960313,19.524481204583562,0)" xlink:href="#F"/><use transform="matrix(0.00528402738960313,0,0,0.00528402738960313,25.8336099077697,0)" xlink:href="#x"/><use transform="matrix(0.00528402738960313,0,0,0.00528402738960313,32.459780254332024,0)" xlink:href="#V"/><use transform="matrix(0.00528402738960313,0,0,0.00528402738960313,38.85873742314141,0)" xlink:href="#H"/><use transform="matrix(0.00528402738960313,0,0,0.00528402738960313,41.47961500838456,0)" xlink:href="#F"/><use transform="matrix(0.00528402738960313,0,0,0.00528402738960313,47.7887437115707,0)" xlink:href="#x"/></g><g id="t"><use transform="matrix(0.00528402738960313,0,0,0.00528402738960313,0,0)" xlink:href="#W"/><use transform="matrix(0.00528402738960313,0,0,0.00528402738960313,6.192880100614869,0)" xlink:href="#J"/><use transform="matrix(0.00528402738960313,0,0,0.00528402738960313,12.269511598658468,0)" xlink:href="#L"/><use transform="matrix(0.00528402738960313,0,0,0.00528402738960313,17.98154520681945,0)" xlink:href="#X"/></g><path d="M180 0v-1490h510c348 0 508 209 508 474 0 266-160 477-507 477H370V0H180zm190-706h312c236 0 327-133 327-310 0-176-91-307-329-307H370v617" id="aa"/><path d="M157-1118h181V80c1 225-123 350-364 338V252c126 9 184-48 183-172v-1198zm91-183c-68 0-125-53-125-119s57-119 125-119c69 0 126 53 126 119s-57 119-126 119" id="ab"/><g id="u"><use transform="matrix(0.006510416666666667,0,0,0.006510416666666667,0,0)" xlink:href="#aa"/><use transform="matrix(0.006510416666666667,0,0,0.006510416666666667,8.515625,0)" xlink:href="#E"/><use transform="matrix(0.006510416666666667,0,0,0.006510416666666667,13.313802083333334,0)" xlink:href="#z"/><use transform="matrix(0.006510416666666667,0,0,0.006510416666666667,21.30859375,0)" xlink:href="#ab"/><use transform="matrix(0.006510416666666667,0,0,0.006510416666666667,24.537760416666668,0)" xlink:href="#F"/><use transform="matrix(0.006510416666666667,0,0,0.006510416666666667,32.31119791666667,0)" xlink:href="#I"/><use transform="matrix(0.006510416666666667,0,0,0.006510416666666667,39.92838541666667,0)" xlink:href="#B"/></g></defs></g></svg>